<svg width="68" height="68" viewBox="0 0 68 68" fill="none" xmlns="http://www.w3.org/2000/svg">
<g clip-path="url(#clip0_76_663)">
<path d="M65.0781 34.7305C65.0781 49.7667 54.8795 62.4208 41.0222 66.1527C40.6922 66.2416 40.3107 65.3315 39.9766 65.4102C37.5728 65.9762 35.1156 66.0742 32.5391 66.0742C21.7453 66.0742 13.0913 60.7519 7.17188 52.6602C6.93799 52.3405 5.79766 53.2785 5.57534 52.9502C2.05567 47.7517 0 41.4812 0 34.7305C0 16.7596 14.5682 2.19141 32.5391 2.19141C50.5099 2.19141 65.0781 16.7596 65.0781 34.7305Z" fill="#0093FA"/>
<path d="M32.5391 61.293C47.2091 61.293 59.1016 49.4005 59.1016 34.7305C59.1016 20.0604 47.2091 8.16797 32.5391 8.16797C17.869 8.16797 5.97656 20.0604 5.97656 34.7305C5.97656 49.4005 17.869 61.293 32.5391 61.293Z" fill="#00A4FB"/>
<path d="M38.0437 1.72656H12.6172C11.517 1.72656 10.625 2.61853 10.625 3.71875V57.0574C12.3197 58.6023 14.1783 59.9706 16.1716 61.1329C16.381 61.255 16.5916 63.1013 16.8038 63.2188C21.4671 65.8001 26.8314 67.2695 32.5391 67.2695C34.7618 67.2695 36.9325 67.0467 39.03 66.6221C39.1425 66.5994 39.2549 65.6463 39.3668 65.6223C39.5907 65.5744 39.8137 65.5244 40.0359 65.4719V3.71875C40.0359 2.61853 39.144 1.72656 38.0437 1.72656Z" fill="#013F69"/>
<path d="M8.57349 1.72656C7.47327 1.72656 6.5813 2.39554 6.5813 3.2207V53.4248C6.77056 53.6747 6.9634 53.9219 7.15956 54.1661C7.29397 54.3333 7.42997 55.4289 7.56756 55.5935C8.4946 56.7018 9.49401 57.7475 10.5586 58.7233C10.6961 58.8492 10.8346 58.1772 10.9742 58.3008C11.543 58.8047 12.1298 59.289 12.7332 59.7525V3.2207C12.7332 2.39554 13.6251 1.72656 14.7254 1.72656H8.57349Z" fill="#012D4E"/>
<path d="M40.0261 55.0508C39.476 55.0508 39.03 55.4966 39.03 56.0469V66.6221C39.7018 66.4861 40.3661 66.3294 41.0222 66.1527V56.0469C41.0222 55.4966 40.5762 55.0508 40.0261 55.0508Z" fill="#C5D3DD"/>
<path d="M7.5675 55.5935V46.2188C7.5675 45.6685 7.12152 45.2227 6.57141 45.2227C6.0213 45.2227 5.57532 45.6685 5.57532 46.2188V52.9502C6.19502 53.8656 6.86015 54.7477 7.5675 55.5935Z" fill="#C5D3DD"/>
<path d="M5.3125 10.625C4.76239 10.625 4.31641 10.1791 4.31641 9.62891V5.64453C4.31641 5.09429 4.76239 4.64844 5.3125 4.64844C5.86261 4.64844 6.30859 5.09429 6.30859 5.64453V9.62891C6.30859 10.1791 5.86261 10.625 5.3125 10.625Z" fill="#C5D3DD"/>
<path d="M41.3047 10.625C40.7546 10.625 40.3086 10.1791 40.3086 9.62891V5.64453C40.3086 5.09429 40.7546 4.64844 41.3047 4.64844C41.8548 4.64844 42.3008 5.09429 42.3008 5.64453V9.62891C42.3008 10.1791 41.8548 10.625 41.3047 10.625Z" fill="#C5D3DD"/>
<path d="M41.3047 18.7266C40.7546 18.7266 40.3086 18.2807 40.3086 17.7305V13.7461C40.3086 13.1959 40.7546 12.75 41.3047 12.75C41.8548 12.75 42.3008 13.1959 42.3008 13.7461V17.7305C42.3008 18.2807 41.8548 18.7266 41.3047 18.7266Z" fill="#C5D3DD"/>
<path d="M40.036 58.2383C39.4859 58.2383 39.0399 57.7924 39.0399 57.2422V3.71875C39.0399 3.16944 38.5931 2.72266 38.0438 2.72266H8.57349C8.02417 2.72266 7.57739 3.16944 7.57739 3.71875V47.5469C7.57739 48.0971 7.13141 48.543 6.5813 48.543C6.03119 48.543 5.58521 48.0971 5.58521 47.5469V3.71875C5.58521 2.07108 6.92568 0.730469 8.57349 0.730469H38.0438C39.6916 0.730469 41.0321 2.07108 41.0321 3.71875V57.2422C41.0321 57.7924 40.5861 58.2383 40.036 58.2383Z" fill="#D9E7EC"/>
<path d="M25.3008 6.64062H21.3164C20.7663 6.64062 20.3203 6.19477 20.3203 5.64453C20.3203 5.09429 20.7663 4.64844 21.3164 4.64844H25.3008C25.8509 4.64844 26.2969 5.09429 26.2969 5.64453C26.2969 6.19477 25.8509 6.64062 25.3008 6.64062Z" fill="#9FACBA"/>
<path d="M24.2455 36.2132L27.1973 24.7062C27.2712 24.4176 27.0533 24.1366 26.7554 24.1366H11.2146C10.9167 24.1366 10.6986 24.4175 10.7727 24.7062L13.7245 36.2132C14.035 37.4238 15.1262 38.2705 16.376 38.2705H21.5939C22.8438 38.2704 23.935 37.4238 24.2455 36.2132Z" fill="#FF2AAA"/>
<path d="M33.2768 36.2132L36.2285 24.7062C36.3025 24.4176 36.0845 24.1366 35.7866 24.1366H16.1287C15.8308 24.1366 15.6127 24.4175 15.6868 24.7062L18.6386 36.2132C18.9491 37.4238 20.0403 38.2705 21.29 38.2705H30.6252C31.8751 38.2704 32.9662 37.4238 33.2768 36.2132Z" fill="#FF4FB8"/>
<path d="M31.182 25.1326C30.6319 25.1326 30.1859 24.6867 30.1859 24.1365V15.7316C30.1859 14.8161 29.4413 14.0714 28.5258 14.0714H18.4755C17.56 14.0714 16.8153 14.8161 16.8153 15.7316V24.1365C16.8153 24.6867 16.3693 25.1326 15.8192 25.1326C15.2691 25.1326 14.8231 24.6867 14.8231 24.1365V15.7316C14.8231 13.7177 16.4615 12.0792 18.4755 12.0792H28.5258C30.5398 12.0792 32.1781 13.7177 32.1781 15.7316V24.1365C32.1781 24.6867 31.7321 25.1326 31.182 25.1326Z" fill="#D9E7EC"/>
<path d="M27.0793 14.6315H19.9219C19.1884 14.6315 18.5938 14.0369 18.5938 13.3033V12.887C18.5938 12.1534 19.1884 11.5588 19.9219 11.5588H27.0793C27.8128 11.5588 28.4074 12.1534 28.4074 12.887V13.3033C28.4074 14.0369 27.8128 14.6315 27.0793 14.6315Z" fill="#FF73C6"/>
<path d="M35.8593 25.8925H11.1418C10.4083 25.8925 9.81372 25.2979 9.81372 24.5644V24.4833C9.81372 23.7498 10.4083 23.1552 11.1418 23.1552H35.8593C36.5928 23.1552 37.1874 23.7498 37.1874 24.4833V24.5644C37.1874 25.2978 36.5928 25.8925 35.8593 25.8925Z" fill="#FF73C6"/>
<path d="M23.5006 36.457C22.7671 36.457 22.1725 35.8624 22.1725 35.1289V28.9989C22.1725 28.2654 22.7671 27.6708 23.5006 27.6708C24.2341 27.6708 24.8287 28.2654 24.8287 28.9989V35.1289C24.8287 35.8624 24.234 36.457 23.5006 36.457Z" fill="#FF73C6"/>
<path d="M18.4058 35.7136C17.6961 35.8986 16.9707 35.4731 16.7858 34.7632L15.6919 30.5653C15.5069 29.8555 15.9325 29.1301 16.6423 28.9452C17.3521 28.7602 18.0775 29.1858 18.2624 29.8956L19.3562 34.0936C19.5411 34.8035 19.1156 35.5288 18.4058 35.7136Z" fill="#FF73C6"/>
<path d="M28.5953 35.7136C29.305 35.8986 30.0305 35.4731 30.2153 34.7632L31.3092 30.5653C31.4942 29.8555 31.0687 29.1301 30.3588 28.9452C29.649 28.7602 28.9236 29.1858 28.7387 29.8956L27.6449 34.0936C27.46 34.8035 27.8855 35.5288 28.5953 35.7136Z" fill="#FF73C6"/>
<path d="M62.5547 45.8867C65.5621 45.8867 68 43.4488 68 40.4414C68 37.434 65.5621 34.9961 62.5547 34.9961C59.5473 34.9961 57.1094 37.434 57.1094 40.4414C57.1094 43.4488 59.5473 45.8867 62.5547 45.8867Z" fill="#FFCD6B"/>
<path d="M62.5547 43.0977C64.0217 43.0977 65.2109 41.9084 65.2109 40.4414C65.2109 38.9744 64.0217 37.7852 62.5547 37.7852C61.0877 37.7852 59.8984 38.9744 59.8984 40.4414C59.8984 41.9084 61.0877 43.0977 62.5547 43.0977Z" fill="#FFB509"/>
<path d="M34.4648 51.1328H11.8867C11.1532 51.1328 10.5586 50.5382 10.5586 49.8047V43.1641C10.5586 42.4305 11.1532 41.8359 11.8867 41.8359H34.4648C35.1984 41.8359 35.793 42.4305 35.793 43.1641V49.8047C35.793 50.5382 35.1984 51.1328 34.4648 51.1328Z" fill="#0571B5"/>
<path d="M34.4648 53.9219H11.8867C11.1532 53.9219 10.5586 54.5165 10.5586 55.25V58.7233C12.4486 60.4557 14.5439 61.9678 16.8038 63.2188H34.4648C35.1984 63.2188 35.793 62.6241 35.793 61.8906V55.25C35.793 54.5165 35.1984 53.9219 34.4648 53.9219Z" fill="#0571B5"/>
<path d="M32.1406 45.6543H22.1797C21.6296 45.6543 21.1836 45.2083 21.1836 44.6582C21.1836 44.1081 21.6296 43.6621 22.1797 43.6621H32.1406C32.6907 43.6621 33.1367 44.1081 33.1367 44.6582C33.1367 45.2083 32.6907 45.6543 32.1406 45.6543Z" fill="#75A7D5"/>
<path d="M28.1562 49.3066H22.1797C21.6296 49.3066 21.1836 48.8607 21.1836 48.3105C21.1836 47.7604 21.6296 47.3145 22.1797 47.3145H28.1562C28.7064 47.3145 29.1523 47.7604 29.1523 48.3105C29.1523 48.8607 28.7064 49.3066 28.1562 49.3066Z" fill="#75A7D5"/>
<path d="M32.1406 57.7402H22.1797C21.6296 57.7402 21.1836 57.2943 21.1836 56.7441C21.1836 56.194 21.6296 55.748 22.1797 55.748H32.1406C32.6907 55.748 33.1367 56.194 33.1367 56.7441C33.1367 57.2943 32.6907 57.7402 32.1406 57.7402Z" fill="#75A7D5"/>
<path d="M28.1562 61.3926H22.1797C21.6296 61.3926 21.1836 60.9466 21.1836 60.3965C21.1836 59.8464 21.6296 59.4004 22.1797 59.4004H28.1562C28.7064 59.4004 29.1523 59.8464 29.1523 60.3965C29.1523 60.9466 28.7064 61.3926 28.1562 61.3926Z" fill="#75A7D5"/>
<path d="M15.9375 49.207C17.4045 49.207 18.5938 48.0178 18.5938 46.5508C18.5938 45.0838 17.4045 43.8945 15.9375 43.8945C14.4705 43.8945 13.2812 45.0838 13.2812 46.5508C13.2812 48.0178 14.4705 49.207 15.9375 49.207Z" fill="#FF94D4"/>
<path d="M15.9375 61.293C17.4045 61.293 18.5938 60.1037 18.5938 58.6367C18.5938 57.1697 17.4045 55.9805 15.9375 55.9805C14.4705 55.9805 13.2812 57.1697 13.2812 58.6367C13.2812 60.1037 14.4705 61.293 15.9375 61.293Z" fill="#FF94D4"/>
<path d="M43.1329 45.977C37.7598 45.687 33.4021 41.3286 33.1127 35.9555C33.0273 34.3705 33.2897 32.8562 33.8303 31.4816C33.9073 31.2858 33.7006 31.0982 33.515 31.1973C30.0104 33.07 27.6785 36.85 27.9059 41.1509C28.1904 46.5348 32.5551 50.8996 37.9392 51.1839C42.2334 51.4108 46.0081 49.0864 47.884 45.5909C47.9864 45.4001 47.793 45.1873 47.5912 45.2663C46.2207 45.8024 44.7119 46.0623 43.1329 45.977Z" fill="#FFC143"/>
<path d="M38.5156 29.9492C36.6744 29.9492 34.9428 30.4176 33.433 31.2416C32.6091 32.7513 32.1406 34.483 32.1406 36.3242C32.1406 42.1923 36.8976 46.9492 42.7656 46.9492C44.6068 46.9492 46.3384 46.4808 47.8482 45.6568C48.6722 44.1471 49.1406 42.4154 49.1406 40.5742C49.1406 34.7062 44.3837 29.9492 38.5156 29.9492Z" fill="#FFCD6B"/>
<path d="M38.5156 48.543C42.9166 48.543 46.4844 44.9752 46.4844 40.5742C46.4844 36.1732 42.9166 32.6055 38.5156 32.6055C34.1146 32.6055 30.5469 36.1732 30.5469 40.5742C30.5469 44.9752 34.1146 48.543 38.5156 48.543Z" fill="#FFB509"/>
<path d="M35.5672 44.9725C35.0171 44.9725 34.5711 44.5266 34.5711 43.9764V38.1682H34.1129C33.5628 38.1682 33.1168 37.7224 33.1168 37.1721C33.1168 36.6219 33.5628 36.176 34.1129 36.176H35.5672C36.1173 36.176 36.5633 36.6219 36.5633 37.1721V43.9764C36.5633 44.5266 36.1173 44.9725 35.5672 44.9725Z" fill="white"/>
<path d="M40.9508 45.1112C39.3165 45.1112 37.9871 43.7818 37.9871 42.1477V39.0009C37.9871 37.3667 39.3165 36.0374 40.9508 36.0374C42.585 36.0374 43.9145 37.3668 43.9145 39.0009V42.1477C43.9145 43.7818 42.585 45.1112 40.9508 45.1112Z" fill="white"/>
<path d="M40.9508 38.0294C40.415 38.0294 39.9792 38.4652 39.9792 39.0008V42.1475C39.9792 42.6832 40.415 43.1189 40.9508 43.1189C41.4865 43.1189 41.9223 42.6832 41.9223 42.1475V39.0008C41.9223 38.4652 41.4865 38.0294 40.9508 38.0294Z" fill="#FFB509"/>
<path d="M56.0107 26.6854C52.6526 26.5041 49.929 23.7801 49.7481 20.422C49.6947 19.4313 49.8587 18.4849 50.1966 17.6259C50.2447 17.5034 50.1156 17.3861 49.9996 17.4482C47.8093 18.6186 46.3519 20.9811 46.4939 23.6691C46.6717 27.034 49.3997 29.762 52.7646 29.9397C55.4485 30.0814 57.8077 28.6287 58.9801 26.4441C59.0442 26.3248 58.9233 26.1919 58.7973 26.2411C57.9406 26.5762 56.9976 26.7387 56.0107 26.6854Z" fill="#FFC143"/>
<path d="M53.125 16.668C51.9743 16.668 50.892 16.9607 49.9484 17.4757C49.4333 18.4194 49.1406 19.5017 49.1406 20.6523C49.1406 24.3198 52.1138 27.293 55.7812 27.293C56.9319 27.293 58.0142 27.0002 58.9579 26.4852C59.4729 25.5416 59.7656 24.4593 59.7656 23.3086C59.7656 19.6411 56.7925 16.668 53.125 16.668Z" fill="#FFCD6B"/>
<path d="M53.125 27.293C55.3255 27.293 57.1094 25.5091 57.1094 23.3086C57.1094 21.1081 55.3255 19.3242 53.125 19.3242C50.9245 19.3242 49.1406 21.1081 49.1406 23.3086C49.1406 25.5091 50.9245 27.293 53.125 27.293Z" fill="#FFB509"/>
<path d="M53.125 25.8604C52.5749 25.8604 52.1289 25.4145 52.1289 24.8643V22.0183C52.1289 21.4682 52.5749 21.0222 53.125 21.0222C53.6751 21.0222 54.1211 21.4682 54.1211 22.0183V24.8643C54.1211 25.4145 53.6751 25.8604 53.125 25.8604Z" fill="#FFE7BF"/>
</g>
<defs>
<clipPath id="clip0_76_663">
<rect width="68" height="68" fill="white"/>
</clipPath>
</defs>
</svg>
