<svg width="68" height="68" viewBox="0 0 68 68" fill="none" xmlns="http://www.w3.org/2000/svg">
<path d="M56.3545 59.104C62.6258 53.1726 66.5392 44.774 66.5392 35.4608C66.5392 17.49 51.9709 2.92163 34 2.92163C16.0292 2.92163 1.46082 17.49 1.46082 35.4608C1.46082 53.4317 16.0292 68 34 68C35.4082 68 36.7956 67.9104 38.1566 67.7369L56.3545 59.104Z" fill="#816AE2"/>
<path d="M52.7048 48.5513C52.4193 47.5019 52.3186 46.4109 52.4073 45.327L52.9387 40.322C53.1981 37.1816 52.7194 34.0353 51.3293 31.2076C47.7374 23.9012 48.5613 23.371 48.4498 16.1195C48.4498 14.6383 47.2489 13.4373 45.7675 13.4373C44.2861 13.4373 43.0852 14.6381 43.0852 16.1195C43.0852 45.6082 43.1401 43.4442 42.9583 44.3089V48.1702C42.9583 51.4236 40.3114 54.0706 37.0581 54.0706C34.8973 54.0706 27.4459 54.0706 22.3754 54.0706C24.6311 57.2076 27.717 59.6638 31.2981 61.1512C31.3203 61.1604 31.3425 61.1697 31.3646 61.1791C34.1315 62.3477 37.2209 64.6796 37.7371 67.573L37.7871 67.7796C45.0733 66.9349 51.6251 63.6845 56.6278 58.8417L52.7048 48.5513Z" fill="#F9BA8F"/>
<path d="M12.4131 13.5311L11.5961 12.7742C10.3367 11.6073 8.35152 11.683 7.18463 12.9424C6.01774 14.2018 6.09344 16.187 7.35277 17.3539L12.4131 22.0425V13.5311Z" fill="#F9BA8F"/>
<path d="M9.01306 15.0074C8.24048 14.2915 7.91549 13.2681 8.04738 12.2928C7.73208 12.4542 7.43843 12.6686 7.18463 12.9423C6.01774 14.2018 6.09344 16.1869 7.35277 17.3538L12.4131 22.0425V18.1578L9.01306 15.0074Z" fill="#FCAD6D"/>
<path d="M52.9492 49.1921C51.8413 56.8323 45.2657 62.7017 37.3185 62.7017C35.9464 62.7017 34.6153 62.5265 33.3462 62.1978C35.4503 63.4844 37.3432 65.3647 37.7371 67.5729L37.787 67.7795C45.0733 66.9348 51.6249 63.6844 56.6278 58.8416L52.9492 49.1921Z" fill="#FD995B"/>
<path d="M38.4645 54.1975H16.9177C14.3697 54.1975 12.2969 52.1245 12.2969 49.5765V4.62094C12.2969 2.07294 14.3697 0 16.9177 0H38.4645C41.0125 0 43.0853 2.07294 43.0853 4.62094V49.5766C43.0853 52.1245 41.0124 54.1975 38.4645 54.1975Z" fill="#2A428C"/>
<path d="M16.9177 0C14.3697 0 12.2969 2.07294 12.2969 4.62081V49.5765C12.2969 52.1245 14.3698 54.1975 16.9177 54.1975H23.341C21.9154 52.7432 23.5782 51.3225 23.5782 51.3225C21.2318 50.7069 21.4311 48.241 21.4311 48.241C21.4311 48.241 21.4311 10.5559 21.4311 8.19852C21.4311 5.84109 23.8257 5.2457 23.8257 5.2457C22.8824 4.30246 23.8257 3.31128 23.8257 3.31128V1.71421C22.9556 1.16277 23.1269 0.411984 23.3163 0L16.9177 0Z" fill="#142766"/>
<path d="M24.2871 3.31144H23.8257C23.3846 3.31144 23.0271 2.95391 23.0271 2.51284C23.0271 2.07176 23.3846 1.71423 23.8257 1.71423H24.2871C24.7282 1.71423 25.0857 2.07176 25.0857 2.51284C25.0857 2.95391 24.7282 3.31144 24.2871 3.31144Z" fill="#3C58A0"/>
<path d="M31.4461 3.31144H27.0126C26.5715 3.31144 26.214 2.95391 26.214 2.51284C26.214 2.07176 26.5715 1.71423 27.0126 1.71423H31.4461C31.8872 1.71423 32.2447 2.07176 32.2447 2.51284C32.2447 2.95391 31.8872 3.31144 31.4461 3.31144Z" fill="#3C58A0"/>
<path d="M38.4645 2.87488H35.2262C34.6224 2.87488 34.1331 3.36429 34.1331 3.96792C34.1331 4.67064 33.5582 5.24571 32.8555 5.24571H22.527C21.8243 5.24571 21.2493 4.67077 21.2493 3.96792C21.2493 3.36429 20.7598 2.87488 20.1562 2.87488H16.9177C15.9535 2.87488 15.1718 3.65661 15.1718 4.62083V49.5765C15.1718 50.5408 15.9535 51.3225 16.9177 51.3225H38.4645C39.4288 51.3225 40.2105 50.5408 40.2105 49.5765C40.2105 44.9521 40.2105 5.85506 40.2105 4.62083C40.2105 3.65661 39.4288 2.87488 38.4645 2.87488Z" fill="#73C3F9"/>
<path d="M23.5781 51.3226C23.2461 49.89 24.9078 49.5553 24.9078 49.5553C24.9078 49.5553 25.9648 40.297 24.9078 39.2401C23.8509 38.1832 24.9078 37.1851 24.9078 37.1851C24.9078 37.1851 26.0625 28.0248 24.9078 26.87C23.7532 25.7153 24.9078 24.815 24.9078 24.815V14.4998C22.8397 13.194 23.9276 11.3151 23.9276 11.3151V8.3567C22.3647 6.7939 23.825 5.24637 23.8255 5.24584H22.5269C21.8242 5.24584 21.2491 4.67089 21.2491 3.96805C21.2491 3.36441 20.7597 2.875 20.1561 2.875H16.9177C15.9535 2.875 15.1718 3.6566 15.1718 4.62095V49.5768C15.1718 50.541 15.9535 51.3227 16.9177 51.3227H23.5781V51.3226Z" fill="#4FABF7"/>
<path d="M21.1953 11.315H34.1869C35.0038 11.315 35.666 10.6528 35.666 9.83582C35.666 9.01889 35.0038 8.35669 34.1869 8.35669H21.1953C20.3784 8.35669 19.7161 9.01889 19.7161 9.83582C19.7161 10.6529 20.3784 11.315 21.1953 11.315Z" fill="#E9EFFF"/>
<path d="M21.1953 8.35669H23.9275V11.3151H21.1953C20.3784 11.3151 19.7162 10.6529 19.7162 9.83595C19.7161 9.01876 20.3784 8.35669 21.1953 8.35669Z" fill="#9BD8F9"/>
<path d="M36.8122 24.8148H18.57C17.8382 24.8148 17.2395 24.2161 17.2395 23.4843V15.8301C17.2395 15.0984 17.8382 14.4996 18.57 14.4996H36.8122C37.544 14.4996 38.1427 15.0984 38.1427 15.8301V23.4843C38.1427 24.2161 37.544 24.8148 36.8122 24.8148Z" fill="#E9EFFF"/>
<path d="M36.8122 37.1849H18.57C17.8382 37.1849 17.2395 36.5862 17.2395 35.8544V28.2003C17.2395 27.4685 17.8382 26.8698 18.57 26.8698H36.8122C37.544 26.8698 38.1427 27.4685 38.1427 28.2003V35.8544C38.1427 36.5862 37.544 37.1849 36.8122 37.1849Z" fill="#E9EFFF"/>
<path d="M36.8122 49.5551H18.57C17.8382 49.5551 17.2395 48.9564 17.2395 48.2246V40.5705C17.2395 39.8387 17.8382 39.24 18.57 39.24H36.8122C37.544 39.24 38.1427 39.8387 38.1427 40.5705V48.2246C38.1427 48.9564 37.544 49.5551 36.8122 49.5551Z" fill="#E9EFFF"/>
<path d="M36.8122 24.8148H18.57C17.8382 24.8148 17.2395 24.2161 17.2395 23.4843V15.8301C17.2395 15.0984 17.8382 14.4996 18.57 14.4996H36.8122C37.544 14.4996 38.1427 15.0984 38.1427 15.8301V23.4843C38.1427 24.2161 37.544 24.8148 36.8122 24.8148Z" fill="#E9EFFF"/>
<path d="M36.8122 37.1849H18.57C17.8382 37.1849 17.2395 36.5862 17.2395 35.8544V28.2003C17.2395 27.4685 17.8382 26.8698 18.57 26.8698H36.8122C37.544 26.8698 38.1427 27.4685 38.1427 28.2003V35.8544C38.1427 36.5862 37.544 37.1849 36.8122 37.1849Z" fill="#E9EFFF"/>
<path d="M36.8122 49.5551H18.57C17.8382 49.5551 17.2395 48.9564 17.2395 48.2246V40.5705C17.2395 39.8387 17.8382 39.24 18.57 39.24H36.8122C37.544 39.24 38.1427 39.8387 38.1427 40.5705V48.2246C38.1427 48.9564 37.544 49.5551 36.8122 49.5551Z" fill="#E9EFFF"/>
<path d="M23.5773 23.4843V15.8303C23.5773 15.0985 24.176 14.4998 24.9078 14.4998H18.57C17.8382 14.4998 17.2395 15.0985 17.2395 15.8303V23.4843C17.2395 24.2161 17.8382 24.8148 18.57 24.8148H24.9078C24.176 24.8148 23.5773 24.2161 23.5773 23.4843Z" fill="#D3DCFB"/>
<path d="M23.5773 35.8545V28.2004C23.5773 27.4686 24.176 26.8699 24.9078 26.8699H18.57C17.8382 26.8699 17.2395 27.4686 17.2395 28.2004V35.8545C17.2395 36.5863 17.8382 37.185 18.57 37.185H24.9078C24.176 37.185 23.5773 36.5863 23.5773 35.8545Z" fill="#D3DCFB"/>
<path d="M23.5773 48.2246V40.5705C23.5773 39.8387 24.176 39.24 24.9078 39.24H18.57C17.8382 39.24 17.2395 39.8387 17.2395 40.5705V48.2246C17.2395 48.9564 17.8382 49.5551 18.57 49.5551H24.9078C24.176 49.5551 23.5773 48.9564 23.5773 48.2246Z" fill="#D3DCFB"/>
<path d="M26.9718 18.778H21.6368C21.0867 18.778 20.6407 18.3321 20.6407 17.7819C20.6407 17.2316 21.0867 16.7858 21.6368 16.7858H26.9718C27.5219 16.7858 27.9679 17.2316 27.9679 17.7819C27.9679 18.332 27.5219 18.778 26.9718 18.778Z" fill="#3C58A0"/>
<path d="M33.7452 22.5288H21.6368C21.0867 22.5288 20.6407 22.083 20.6407 21.5327C20.6407 20.9825 21.0867 20.5366 21.6368 20.5366H33.7452C34.2953 20.5366 34.7413 20.9825 34.7413 21.5327C34.7413 22.083 34.2953 22.5288 33.7452 22.5288Z" fill="#BEC8F7"/>
<path d="M31.1333 18.778H30.3806C29.8305 18.778 29.3845 18.3321 29.3845 17.7819C29.3845 17.2316 29.8305 16.7858 30.3806 16.7858H31.1333C31.6834 16.7858 32.1294 17.2316 32.1294 17.7819C32.1294 18.332 31.6835 18.778 31.1333 18.778Z" fill="#BEC8F7"/>
<path d="M26.9718 31.1481H21.6368C21.0867 31.1481 20.6407 30.7022 20.6407 30.152C20.6407 29.6017 21.0867 29.1559 21.6368 29.1559H26.9718C27.5219 29.1559 27.9679 29.6017 27.9679 30.152C27.9679 30.7022 27.5219 31.1481 26.9718 31.1481Z" fill="#3C58A0"/>
<path d="M33.7452 34.899H21.6368C21.0867 34.899 20.6407 34.4532 20.6407 33.903C20.6407 33.3527 21.0867 32.9069 21.6368 32.9069H33.7452C34.2953 32.9069 34.7413 33.3527 34.7413 33.903C34.7413 34.4531 34.2953 34.899 33.7452 34.899Z" fill="#BEC8F7"/>
<path d="M31.1333 31.1481H30.3806C29.8305 31.1481 29.3845 30.7022 29.3845 30.152C29.3845 29.6017 29.8305 29.1559 30.3806 29.1559H31.1333C31.6834 29.1559 32.1294 29.6017 32.1294 30.152C32.1294 30.7022 31.6835 31.1481 31.1333 31.1481Z" fill="#BEC8F7"/>
<path d="M26.9718 43.5183H21.6368C21.0867 43.5183 20.6407 43.0723 20.6407 42.5222C20.6407 41.972 21.0867 41.5261 21.6368 41.5261H26.9718C27.5219 41.5261 27.9679 41.972 27.9679 42.5222C27.9679 43.0725 27.5219 43.5183 26.9718 43.5183Z" fill="#3C58A0"/>
<path d="M33.7452 47.2692H21.6368C21.0867 47.2692 20.6407 46.8233 20.6407 46.2731C20.6407 45.7228 21.0867 45.277 21.6368 45.277H33.7452C34.2953 45.277 34.7413 45.7228 34.7413 46.2731C34.7413 46.8233 34.2953 47.2692 33.7452 47.2692Z" fill="#BEC8F7"/>
<path d="M31.1333 43.5183H30.3806C29.8305 43.5183 29.3845 43.0723 29.3845 42.5222C29.3845 41.972 29.8305 41.5261 30.3806 41.5261H31.1333C31.6834 41.5261 32.1294 41.972 32.1294 42.5222C32.1294 43.0725 31.6835 43.5183 31.1333 43.5183Z" fill="#BEC8F7"/>
<path d="M16.956 29.9947C15.9292 31.1027 14.1987 31.1687 13.0906 30.1419L8.50901 25.8967C7.40096 24.8701 7.33495 23.1394 8.36173 22.0314C9.3885 20.9233 11.119 20.8573 12.2271 21.8841L16.8087 26.1293C17.9168 27.1561 17.9828 28.8866 16.956 29.9947Z" fill="#F9BA8F"/>
<path d="M14.9755 28.2124L10.3939 23.9671C9.62756 23.2571 9.36048 22.2106 9.60764 21.266C9.14572 21.3993 8.71235 21.6531 8.36173 22.0315C7.33495 23.1396 7.40096 24.8703 8.50901 25.8969L13.0906 30.1421C14.1987 31.1688 15.9292 31.1029 16.956 29.9948C17.2726 29.6531 17.4846 29.2519 17.5949 28.8306C16.7041 29.0876 15.7052 28.8885 14.9755 28.2124Z" fill="#FCAD6D"/>
<path d="M16.956 44.916C15.9292 46.0241 14.1987 46.0901 13.0906 45.0633L8.50901 40.8181C7.40096 39.7915 7.33495 38.0608 8.36173 36.9527C9.3885 35.8447 11.119 35.7787 12.2271 36.8055L16.8087 41.0507C17.9168 42.0773 17.9828 43.808 16.956 44.916Z" fill="#F9BA8F"/>
<path d="M14.9755 43.1335L10.3939 38.8883C9.62756 38.1783 9.36048 37.1317 9.60764 36.1871C9.14572 36.3205 8.71235 36.5743 8.36173 36.9527C7.33495 38.0607 7.40096 39.7914 8.50901 40.818L13.0906 45.0633C14.1987 46.0899 15.9292 46.024 16.956 44.916C17.2726 44.5742 17.4846 44.173 17.5949 43.7517C16.7041 44.0089 15.7052 43.8096 14.9755 43.1335Z" fill="#FCAD6D"/>
<path d="M16.956 37.4554C15.9292 38.5634 14.1987 38.6294 13.0906 37.6026L8.50901 33.3574C7.40096 32.3308 7.33495 30.6001 8.36173 29.492C9.3885 28.384 11.119 28.318 12.2271 29.3448L16.8087 33.59C17.9168 34.6166 17.9828 36.3472 16.956 37.4554Z" fill="#F9BA8F"/>
<path d="M14.9755 35.6729L10.3939 31.4277C9.62756 30.7177 9.36048 29.6711 9.60764 28.7266C9.14572 28.8599 8.71222 29.1137 8.36173 29.4921C7.33495 30.6001 7.40096 32.3307 8.50901 33.3575L13.0906 37.6027C14.1987 38.6295 15.9292 38.5635 16.956 37.4554C17.2726 37.1137 17.4846 36.7124 17.5949 36.2912C16.7041 36.5483 15.7052 36.3491 14.9755 35.6729Z" fill="#FCAD6D"/>
<path d="M56.0559 11.5397C54.2897 13.7863 52.6956 17.0142 53.97 20.5367C56.3606 27.1445 60.1679 32.7541 58.397 42.5222C57.5935 46.9544 60.2302 48.8123 63.3504 49.5197C65.3929 45.2641 66.5391 40.4966 66.5391 35.4608C66.5392 26.0008 62.5009 17.4853 56.0559 11.5397Z" fill="#9181F2"/>
</svg>
