<svg width="70" height="70" viewBox="0 0 70 70" fill="none" xmlns="http://www.w3.org/2000/svg">
<mask id="mask0_277_51" style="mask-type:luminance" maskUnits="userSpaceOnUse" x="0" y="0" width="70" height="70">
<path d="M0 7.62939e-06H70V70H0V7.62939e-06Z" fill="white"/>
</mask>
<g mask="url(#mask0_277_51)">
<path d="M51.9034 6.29778C46.6963 3.03143 40.5371 1.1428 33.9367 1.1428C26.6216 1.1428 19.8481 3.46278 14.3123 7.40698L10.9261 59.833H56.9475C57.8882 58.9607 58.7795 58.0358 59.6163 57.063L51.9034 6.29778Z" fill="#FB3D80"/>
<path d="M10.9262 59.833H56.9473C57.0692 59.7202 57.1914 59.608 57.3114 59.4934H53.5432C46.8448 59.4934 41.4144 54.0632 41.4144 47.3647V10.4416L58.0233 58.7913C64.0638 52.6763 67.7941 44.2743 67.7941 35C67.7941 22.9014 61.4469 12.287 51.9021 6.29969L47.1326 8.13281L41.4144 10.0971C41.4144 8.6116 40.2102 7.40738 38.7248 7.40738H25.4926V59.4934H22.6892L22.279 7.40738H14.3124C11.4989 9.41195 12.1431 15.0565 10.0602 17.8091C8.28203 20.1589 3.66504 19.5274 2.54271 22.2988C0.954179 26.2207 0.0795898 30.5082 0.0795898 35C0.0795898 39.492 0.95459 43.7791 2.5434 47.701C3.31148 49.5967 5.33314 50.9077 6.4165 52.6145C7.98795 55.0905 8.78516 57.8481 10.9262 59.833Z" fill="#E21E69"/>
<path d="M14.3124 7.40738C12.205 8.90868 10.2776 10.646 8.56763 12.5801V57.4157C9.23769 58.1736 9.93933 58.9032 10.6742 59.5984H18.4666V7.40738H14.3124Z" fill="#FEC502"/>
<path d="M8.70276 57.4393C8.70276 56.1263 9.6803 55.0454 10.9783 54.8463C12.4375 54.6225 13.7033 53.4145 13.7434 51.7268C13.7827 50.0794 12.5559 48.6344 10.9205 48.4311C10.0962 48.3285 9.3236 48.5365 8.70276 48.9534V46.2139C8.70276 43.8368 10.6298 41.9099 13.0068 41.9099C14.0584 41.9099 14.911 41.0573 14.911 40.0055V19.7147C14.911 18.663 14.0584 17.8106 13.0068 17.8106H8.70276V12.4295C6.11919 15.317 4.02288 18.6498 2.54468 22.2996V47.7005C4.02274 51.35 6.11905 54.6824 8.70276 57.5696V57.4393Z" fill="#FFA50A"/>
<path d="M13.0068 15.1171H9.0849V39.2165H13.0068C14.0585 39.2165 14.911 38.3639 14.911 37.3123V17.0214C14.911 15.9697 14.0585 15.1171 13.0068 15.1171Z" fill="white"/>
<path d="M9.33906 37.3122V17.0214C9.33906 15.9697 10.1916 15.117 11.2433 15.117H8.00455C6.95291 15.117 6.10046 15.9697 6.10046 17.0214V37.3122C6.10046 38.3639 6.95291 39.2164 8.00455 39.2164H11.2433C10.1916 39.2164 9.33906 38.3639 9.33906 37.3122Z" fill="#F5F0F0"/>
<path d="M13.7444 49.3758C13.7444 51.1645 12.2944 52.6145 10.5058 52.6145C8.71713 52.6145 7.26709 51.1645 7.26709 49.3758C7.26709 47.5871 8.71713 46.1372 10.5058 46.1372C12.2944 46.1372 13.7444 47.5871 13.7444 49.3758Z" fill="#FFA50A"/>
<path d="M10.5056 45.2865C10.4966 45.2865 10.4876 45.2872 10.4784 45.2873V46.9891C10.4876 46.9889 10.4965 46.9877 10.5056 46.9877C11.8225 46.9877 12.8938 48.059 12.8938 49.3758C12.8938 50.6926 11.8225 51.7641 10.5056 51.7641C9.1889 51.7641 8.11757 50.6926 8.11757 49.3758C8.11757 49.3424 8.11949 49.3095 8.12099 49.2764H6.42062C6.4198 49.3097 6.41638 49.3424 6.41638 49.3758C6.41638 51.6307 8.25087 53.465 10.5056 53.465C12.7605 53.465 14.595 51.6307 14.595 49.3758C14.595 47.121 12.7605 45.2865 10.5056 45.2865Z" fill="#F5F0F0"/>
<path d="M7.26703 50.2264C6.79727 50.2264 6.4165 49.8456 6.4165 49.3757C6.4165 47.1209 8.25086 45.2865 10.5056 45.2865C10.9755 45.2865 11.3563 45.6674 11.3563 46.1371C11.3563 46.6068 10.9755 46.9876 10.5056 46.9876C9.18889 46.9876 8.11756 48.059 8.11756 49.3757C8.11756 49.8456 7.7368 50.2264 7.26703 50.2264Z" fill="white"/>
<path d="M38.0122 59.5984H27.6631V7.40744H38.0122V59.5984Z" fill="#00B7F0"/>
<path d="M32.5524 17.8106H28.2484V7.40737H22.0905V59.5984H28.2484V57.4393C28.2484 56.1264 29.2259 55.0455 30.524 54.8465C31.9832 54.6226 33.2489 53.4145 33.2891 51.7268C33.3283 50.0793 32.1015 48.6344 30.4661 48.4312C29.6418 48.3287 28.8692 48.5366 28.2484 48.9533V46.2139C28.2484 43.8368 30.1755 41.91 32.5524 41.91C33.6041 41.91 34.4567 41.0573 34.4567 40.0056V19.7148C34.4567 18.663 33.6041 17.8106 32.5524 17.8106Z" fill="#0091C8"/>
<path d="M32.5525 15.1171H28.7435V39.2165H32.5525C33.6042 39.2165 34.4567 38.3639 34.4567 37.3123V17.0214C34.4567 15.9697 33.6042 15.1171 32.5525 15.1171Z" fill="white"/>
<path d="M28.8847 37.3122V17.0214C28.8847 15.9697 29.7373 15.117 30.7889 15.117H27.5502C26.4986 15.117 25.6461 15.9697 25.6461 17.0214V37.3122C25.6461 38.3639 26.4986 39.2164 27.5502 39.2164H30.7889C29.7373 39.2164 28.8847 38.3639 28.8847 37.3122Z" fill="#F5F0F0"/>
<path d="M33.2901 49.3758C33.2901 51.1645 31.8402 52.6145 30.0515 52.6145C28.2628 52.6145 26.8127 51.1645 26.8127 49.3758C26.8127 47.5871 28.2628 46.1372 30.0515 46.1372C31.8402 46.1372 33.2901 47.5871 33.2901 49.3758Z" fill="#0091C8"/>
<path d="M30.0514 45.2865C30.0005 45.2865 29.9502 45.2887 29.8999 45.2903V46.9954C29.9502 46.9922 30.0002 46.9877 30.0514 46.9877C31.3681 46.9877 32.4394 48.059 32.4394 49.3758C32.4394 50.6926 31.3681 51.7641 30.0514 51.7641C28.7346 51.7641 27.6632 50.6926 27.6632 49.3758C27.6632 49.3182 27.6679 49.2617 27.672 49.2051C27.6232 49.2097 27.5733 49.2127 27.5216 49.2127H25.9662C25.964 49.2668 25.9621 49.3211 25.9621 49.3758C25.9621 51.6307 27.7965 53.465 30.0514 53.465C32.3061 53.465 34.1406 51.6307 34.1406 49.3758C34.1406 47.121 32.3061 45.2865 30.0514 45.2865Z" fill="#F5F0F0"/>
<path d="M26.8126 50.2264C26.3429 50.2264 25.9621 49.8456 25.9621 49.3757C25.9621 47.1209 27.7965 45.2865 30.0514 45.2865C30.5211 45.2865 30.9019 45.6674 30.9019 46.1371C30.9019 46.6068 30.5211 46.9876 30.0514 46.9876C28.7345 46.9876 27.6632 48.059 27.6632 49.3757C27.6632 49.8456 27.2824 50.2264 26.8126 50.2264Z" fill="white"/>
<path d="M69.9206 54.3206L60.4687 57.5674L43.5128 8.20761L52.9646 4.96081L69.9206 54.3206Z" fill="#8757F3"/>
<path d="M53.6003 17.7557C53.2587 16.7611 52.1753 16.2318 51.1808 16.5735L47.1101 17.9717L43.7305 8.13276L37.9064 10.1334L54.8622 59.4933L60.6863 57.4927L59.9848 55.4508C59.5582 54.209 60.1316 52.8692 61.2944 52.2593C62.6019 51.5736 63.4065 50.0197 62.8961 48.4105C62.398 46.8398 60.7683 45.8716 59.1557 46.2107C58.3428 46.3816 57.6796 46.8292 57.2279 47.4252L56.3378 44.8344C55.5656 42.5862 56.7621 40.1377 59.0101 39.3655C60.0048 39.0238 60.5341 37.9406 60.1925 36.9458L53.6003 17.7557Z" fill="#6A2BC2"/>
<path d="M59.3174 34.3985L52.7253 15.2084C52.3836 14.2136 51.3002 13.6844 50.3057 14.0261L46.8409 15.2162C46.8409 15.2162 53.2549 36.134 54.4691 37.3482L55.0119 37.891L58.1352 36.818C59.1298 36.4764 59.6591 35.3931 59.3174 34.3985Z" fill="white"/>
<path d="M56.4673 37.391C55.4728 37.7327 54.3894 37.2034 54.0478 36.2088L47.4556 17.0185C47.1139 16.0239 47.6433 14.9407 48.6378 14.599L45.5749 15.6512C44.5803 15.9929 44.051 17.0761 44.3927 18.0709L50.9847 37.261C51.3264 38.2556 52.4096 38.7848 53.4044 38.4432L56.4673 37.391Z" fill="#F5F0F0"/>
<path d="M62.1333 46.1868C62.7144 47.8784 61.8141 49.721 60.1225 50.302C58.4308 50.8832 56.5883 49.9829 56.0072 48.2912C55.426 46.5996 56.3263 44.7571 58.0181 44.1759C59.7097 43.5949 61.5521 44.4952 62.1333 46.1868Z" fill="#6A2BC2"/>
<path d="M62.9378 45.9105C62.2082 43.787 59.894 42.6494 57.7687 43.3629V45.2395C57.931 45.1331 58.1062 45.045 58.2944 44.9803C58.5506 44.8924 58.8113 44.8505 59.0681 44.8505C60.0601 44.8505 60.989 45.4738 61.3287 46.4631C61.5361 47.0665 61.4961 47.7142 61.2159 48.2875C60.9359 48.8605 60.4495 49.2903 59.8463 49.4975C59.2428 49.7051 58.5947 49.6647 58.0219 49.3847C57.4488 49.1045 57.0191 48.6182 56.8117 48.0149C56.7896 47.9506 56.7719 47.8854 56.7553 47.8203C56.7246 47.822 56.6945 47.8249 56.6625 47.8249H55.0239C55.06 48.0731 55.1185 48.3217 55.2029 48.5675C55.5578 49.6004 56.2936 50.4334 57.275 50.9131C57.8427 51.1905 58.4531 51.3305 59.067 51.3303C59.5142 51.3303 59.9633 51.2559 60.3989 51.1064C61.4318 50.7515 62.265 50.0155 62.7446 49.0343C63.2239 48.0528 63.2925 46.9436 62.9378 45.9105Z" fill="#F5F0F0"/>
<path d="M56.0073 49.142C55.654 49.142 55.3241 48.9203 55.2028 48.5675C54.4703 46.435 55.6092 44.1041 57.7419 43.3714C58.1861 43.2188 58.6699 43.4553 58.8226 43.8995C58.9752 44.3437 58.7388 44.8276 58.2945 44.9804C57.0491 45.4081 56.384 46.7694 56.8119 48.0149C56.9643 48.4591 56.7279 48.943 56.2836 49.0957C56.1921 49.1271 56.099 49.142 56.0073 49.142Z" fill="white"/>
<path d="M35.0824 59.4934H10.562C16.6392 65.2948 24.8718 68.8572 33.9368 68.8572C34.3203 68.8572 34.7019 68.8486 35.0824 68.8359V59.4934Z" fill="#A55A3C"/>
<path d="M34.8042 59.4934C32.1792 59.4934 30.0513 61.6213 30.0513 64.2463C30.0513 66.4674 31.5752 68.3322 33.6343 68.8535C33.7352 68.8545 33.8357 68.8572 33.9367 68.8572C43.0016 68.8572 51.2344 65.2948 57.3115 59.4934H34.8042Z" fill="#783C28"/>
<path d="M13.1365 22.2051H7.87585V20.0786H13.1365V22.2051Z" fill="#F5F0F0"/>
<path d="M13.1365 26.1743H7.87585V24.0477H13.1365V26.1743Z" fill="#F5F0F0"/>
<path d="M13.1365 30.1436H7.87585V28.0171H13.1365V30.1436Z" fill="#F5F0F0"/>
<path d="M13.1365 21.3544H10.0602V19.228H13.1365V21.3544Z" fill="#B6FFF6"/>
<path d="M13.1365 25.3237H10.0602V23.1973H13.1365V25.3237Z" fill="#B6FFF6"/>
<path d="M13.1365 29.293H10.0602V27.1666H13.1365V29.293Z" fill="#B6FFF6"/>
<path d="M10.5062 21.3544H7.87585V19.228H10.5062V21.3544Z" fill="#97F4EC"/>
<path d="M10.5062 25.3237H7.87585V23.1973H10.5062V25.3237Z" fill="#97F4EC"/>
<path d="M10.5062 29.293H7.87585V27.1666H10.5062V29.293Z" fill="#97F4EC"/>
<path d="M32.6817 22.296H27.421V20.1696H32.6817V22.296Z" fill="#F5F0F0"/>
<path d="M32.6817 26.2652H27.421V24.1388H32.6817V26.2652Z" fill="#F5F0F0"/>
<path d="M32.6817 30.2347H27.421V28.1082H32.6817V30.2347Z" fill="#F5F0F0"/>
<path d="M32.6817 21.4454H29.603V19.319H32.6817V21.4454Z" fill="#B6FFF6"/>
<path d="M32.6817 25.4148H29.603V23.2884H32.6817V25.4148Z" fill="#B6FFF6"/>
<path d="M32.6817 29.384H29.603V27.2576H32.6817V29.384Z" fill="#B6FFF6"/>
<path d="M30.0514 21.4454H27.421V19.319H30.0514V21.4454Z" fill="#97F4EC"/>
<path d="M30.0514 25.4148H27.421V23.2884H30.0514V25.4148Z" fill="#97F4EC"/>
<path d="M30.0514 29.384H27.421V27.2576H30.0514V29.384Z" fill="#97F4EC"/>
<path d="M52.7238 20.665L47.7728 22.4433L47.0539 20.442L52.0049 18.6637L52.7238 20.665Z" fill="#F5F0F0"/>
<path d="M54.0655 24.4006L49.1145 26.1789L48.3956 24.1776L53.3466 22.3993L54.0655 24.4006Z" fill="#F5F0F0"/>
<path d="M55.4072 28.1362L50.4562 29.9145L49.7373 27.9132L54.6884 26.1349L55.4072 28.1362Z" fill="#F5F0F0"/>
<path d="M52.4362 19.8644L49.6134 20.8785L48.8945 18.8772L51.7175 17.8633L52.4362 19.8644Z" fill="#B6FFF6"/>
<path d="M53.778 23.6002L50.9551 24.6141L50.2362 22.6128L53.0592 21.5989L53.778 23.6002Z" fill="#B6FFF6"/>
<path d="M55.1197 27.3358L52.2967 28.3497L51.5779 26.3484L54.4008 25.3345L55.1197 27.3358Z" fill="#B6FFF6"/>
<path d="M49.9607 20.7536L47.4853 21.6427L46.7665 19.6414L49.242 18.7523L49.9607 20.7536Z" fill="#97F4EC"/>
<path d="M51.3024 24.4892L48.8269 25.3783L48.1082 23.377L50.5836 22.4879L51.3024 24.4892Z" fill="#97F4EC"/>
<path d="M52.6442 28.2248L50.1688 29.1139L49.4499 27.1127L51.9253 26.2235L52.6442 28.2248Z" fill="#97F4EC"/>
</g>
</svg>
