<svg width="68" height="68" viewBox="0 0 68 68" fill="none" xmlns="http://www.w3.org/2000/svg">
<g clip-path="url(#clip0_76_314)">
<path d="M34 68C52.7777 68 68 52.7777 68 34C68 15.2223 52.7777 0 34 0C15.2223 0 0 15.2223 0 34C0 52.7777 15.2223 68 34 68Z" fill="url(#paint0_radial_76_314)"/>
<path d="M56.4719 52.7V41.8094C55.6219 39.6312 54.7719 39.2063 54.7719 39.2063C53.7094 37.7188 42.8188 33.7344 42.8188 33.7344L41.7563 34.2125L41.5438 34.9563L39.5781 41.8094H28.4219L26.4563 34.9563L26.2438 34.2125L25.1813 33.7344C25.1813 33.7344 14.2906 37.7188 13.2281 39.2063C13.2281 39.2063 12.3781 39.6312 11.5281 41.8094V52.7H56.4719Z" fill="#353944"/>
<path d="M40.5344 36.55C36.1781 36.55 31.8219 36.55 27.4656 36.55C28.5813 33.15 28.5813 29.5906 27.4656 26.2438H40.5344C39.4188 29.5906 39.4188 33.2032 40.5344 36.55Z" fill="#F0B97C"/>
<path d="M31.9812 52.7H36.125L37.0812 49.7782L38.6219 45.1032L41.9687 34.9563H26.4562L30.9719 49.4594L31.9812 52.7Z" fill="#FDFEFF"/>
<path d="M37.5594 52.7L37.1344 50.2032L37.0812 49.7782L36.4969 46.1125L35.3281 38.9407H32.6719L31.5031 46.1125L30.9719 49.4594L30.8656 50.2032L30.4406 52.7H37.5594Z" fill="#F1592F"/>
<path d="M34 34.9563L39.7375 31.875L38.25 38.3562C38.25 38.3562 36.7625 36.6031 34 34.9563Z" fill="#E8E7E8"/>
<path d="M36.975 37.0813L35.3281 38.9407H32.6719L31.025 37.0813C31.7156 36.4438 32.725 35.7 34 34.9563C35.275 35.7 36.2313 36.4438 36.975 37.0813Z" fill="#E34E30"/>
<path d="M38.1438 52.7L43.2969 42.3406L41.0656 41.3313L43.775 39.525L42.8188 33.7344L39.7375 31.8219L39.6844 31.9813L39.0469 34.9563H38.9938L38.675 36.55L38.25 38.3563L36.4969 46.1125L35.0094 52.7H38.1438Z" fill="#656D7A"/>
<path d="M34 34.9563L28.2625 31.875L29.75 38.3562C29.75 38.3562 31.2375 36.6031 34 34.9563Z" fill="#E8E7E8"/>
<path d="M24.7032 42.3406L29.8563 52.7H32.9907L31.5032 46.1125L29.75 38.3563L29.325 36.55L29.0063 34.9563L28.3157 31.9281L28.2625 31.8219L25.1813 33.7344L24.225 39.525L26.9344 41.3313L24.7032 42.3406Z" fill="#656D7A"/>
<path d="M43.0952 22.0488C43.9622 22.2011 44.9242 20.8486 45.244 19.0279C45.5638 17.2072 45.1202 15.6077 44.2532 15.4555C43.3862 15.3032 42.4241 16.6557 42.1043 18.4764C41.7846 20.2971 42.2282 21.8965 43.0952 22.0488Z" fill="#F0B97C"/>
<path d="M22.525 19.0188C22.8438 20.825 23.8 22.1531 24.65 22.0469C25.5 21.8875 25.925 20.2938 25.6063 18.4875C24.8625 14.1313 21.7813 14.7156 22.525 19.0188Z" fill="#F0B97C"/>
<path d="M43.8813 16.6812C43.8813 25.2875 37.4532 31.875 33.8407 31.875C30.2813 31.875 23.8 25.2875 23.8 16.6812C23.8 10.8906 28.3157 3.45312 33.8407 3.45312C39.4188 3.45312 43.8813 10.8906 43.8813 16.6812Z" fill="#F7CFA3"/>
<path d="M43.2969 14.7157C43.2969 15.8313 43.0844 16.8938 42.7125 17.9032L44.1469 17.6907C44.8906 16.15 45.3157 14.45 45.3157 12.6438C45.3157 11.3157 45.1031 9.98754 44.6781 8.81879C44.0938 9.24379 43.2438 9.77504 42.1813 10.2532C42.8719 11.5813 43.2969 13.1219 43.2969 14.7157Z" fill="#353944"/>
<path d="M45.5813 7.91565C45.5813 8.07503 45.2625 8.39378 44.625 8.8719C44.0407 9.2969 43.1907 9.82815 42.1282 10.3063C36.0719 13.175 28.6875 12.0063 25.6594 10.0938C24.2782 12.5375 24.0657 15.4594 24.9688 17.9563L23.5344 17.7438C17.4782 5.36565 34.9563 -6.6406 45.5813 7.91565Z" fill="#4D535F"/>
<path d="M56.1531 41.0125H11.8469C10.6781 41.0125 9.72186 41.9688 9.72186 43.1375V68H58.2781V43.1375C58.2781 41.9688 57.3219 41.0125 56.1531 41.0125Z" fill="#E8E7E8"/>
<path d="M34 58.5437C36.2298 58.5437 38.0375 56.7361 38.0375 54.5062C38.0375 52.2764 36.2298 50.4688 34 50.4688C31.7701 50.4688 29.9625 52.2764 29.9625 54.5062C29.9625 56.7361 31.7701 58.5437 34 58.5437Z" fill="#D2D2D4"/>
<path d="M31.0448 18.5222C31.0448 19.3631 30.3631 20.0448 29.5227 20.0448C28.6817 20.0448 28 19.3631 28 18.5222C28 17.6817 28.6817 17 29.5227 17C30.3631 17 31.0448 17.6817 31.0448 18.5222Z" fill="#3D4159"/>
<path d="M39.8069 18.5222C39.8069 19.3631 39.1252 20.0448 38.2842 20.0448C37.4432 20.0448 36.7615 19.3631 36.7615 18.5222C36.7615 17.6817 37.4432 17 38.2842 17C39.1252 17 39.8069 17.6817 39.8069 18.5222Z" fill="#3D4159"/>
<path d="M30.7346 18.254C30.7346 18.614 30.4426 18.9061 30.082 18.9061C29.722 18.9061 29.4299 18.614 29.4299 18.254C29.4299 17.8934 29.722 17.6013 30.082 17.6013C30.4426 17.6013 30.7346 17.8934 30.7346 18.254Z" fill="white"/>
<path d="M39.5708 18.254C39.5708 18.614 39.2787 18.9061 38.9186 18.9061C38.5581 18.9061 38.266 18.614 38.266 18.254C38.266 17.8934 38.5581 17.6013 38.9186 17.6013C39.2787 17.6013 39.5708 17.8934 39.5708 18.254Z" fill="white"/>
<path d="M35.4261 21.7589H32.3807C32.0181 21.7589 31.7239 21.4648 31.7239 21.1021C31.7239 20.739 32.0181 20.4453 32.3807 20.4453H35.4261C35.7887 20.4453 36.0829 20.739 36.0829 21.1021C36.0824 21.4648 35.7882 21.7589 35.4261 21.7589Z" fill="#EAB599"/>
<path d="M33.9035 25.914C32.7798 25.914 31.6555 25.6323 30.6314 25.0689C30.3424 24.9101 30.2366 24.547 30.3959 24.2585C30.5546 23.9695 30.9178 23.8642 31.2068 24.0225C32.8954 24.9511 34.9115 24.9511 36.6002 24.0225C36.8892 23.8637 37.2523 23.969 37.4111 24.2585C37.5703 24.547 37.4645 24.9101 37.1755 25.0689C36.1509 25.6323 35.0272 25.914 33.9035 25.914Z" fill="#EAB599"/>
</g>
<defs>
<radialGradient id="paint0_radial_76_314" cx="0" cy="0" r="1" gradientUnits="userSpaceOnUse" gradientTransform="translate(34 34) rotate(90) scale(34)">
<stop offset="0.340069" stop-color="#FE6C66"/>
<stop offset="1" stop-color="#DC271F"/>
</radialGradient>
<clipPath id="clip0_76_314">
<rect width="68" height="68" fill="white"/>
</clipPath>
</defs>
</svg>
