<svg width="68" height="68" viewBox="0 0 68 68" fill="none" xmlns="http://www.w3.org/2000/svg">
<g clip-path="url(#clip0_76_641)">
<path d="M33.9999 55.4801C45.8631 55.4801 55.4801 45.8631 55.4801 33.9999C55.4801 22.1368 45.8631 12.5198 33.9999 12.5198C22.1368 12.5198 12.5198 22.1368 12.5198 33.9999C12.5198 45.8631 22.1368 55.4801 33.9999 55.4801Z" fill="#F0F5FF"/>
<path d="M34 55.4801C45.8442 55.4801 55.4802 45.8442 55.4802 33.9999C55.4802 22.1557 45.8442 12.5198 34 12.5198V55.4801Z" fill="#D8F1FB"/>
<path d="M25.5198 8.3211C25.855 9.1302 26.7343 9.57737 27.5817 9.35624C29.6328 8.82114 31.7835 8.53533 34 8.53533C36.2165 8.53533 38.3671 8.82114 40.4183 9.35624C41.2656 9.57724 42.145 9.13006 42.4802 8.3211L44.4118 3.65859C44.8157 2.68388 44.2802 1.57303 43.2651 1.28496C40.3185 0.448773 37.2109 0 34 0C30.7891 0 27.6814 0.448773 24.7348 1.28496C23.7199 1.57303 23.1844 2.68388 23.5881 3.65859L25.5198 8.3211Z" fill="#00A8ED"/>
<path d="M34 8.53546C36.2165 8.53546 38.3671 8.82127 40.4183 9.35637C41.2656 9.57737 42.145 9.1302 42.4802 8.32123L44.4118 3.65872C44.8157 2.68401 44.2802 1.57316 43.2651 1.28509C40.3186 0.448773 37.2109 0 34 0V8.53546Z" fill="#008EED"/>
<path d="M24.3977 38.4093H22.1221V35.9921H23.3308C24.431 35.9921 25.323 35.1002 25.323 34C25.323 32.8997 24.431 32.0078 23.3308 32.0078H22.1221V29.5906H24.3977C25.4979 29.5906 26.3899 28.6986 26.3899 27.5984C26.3899 26.4982 25.4979 25.6062 24.3977 25.6062H20.1299C19.0297 25.6062 18.1377 26.4982 18.1377 27.5984V40.4015C18.1377 41.5017 19.0297 42.3937 20.1299 42.3937H24.3977C25.4979 42.3937 26.3899 41.5017 26.3899 40.4015C26.3899 39.3013 25.4979 38.4093 24.3977 38.4093Z" fill="#08475E"/>
<path d="M50.162 27.439C48.98 26.2571 47.4082 25.6062 45.7361 25.6062H43.6023C42.5021 25.6062 41.6101 26.4982 41.6101 27.5984V40.4015C41.6101 41.5017 42.5021 42.3937 43.6023 42.3937C44.7025 42.3937 45.5945 41.5017 45.5945 40.4015V38.126H45.7361C47.4075 38.126 48.9793 37.4747 50.1611 36.293C51.3272 35.1285 51.9959 33.5149 51.9959 31.8661C51.996 30.1923 51.3445 28.6198 50.162 27.439ZM45.7361 34.1417H45.5945V29.5906H45.7361C46.9925 29.5906 48.0117 30.6061 48.0117 31.8661C48.0117 33.1036 47.0093 34.1417 45.7361 34.1417Z" fill="#05303D"/>
<path d="M46.8791 12.039C50.623 14.243 53.7567 17.3767 55.9607 21.1205C56.4038 21.8731 57.341 22.1751 58.148 21.8408L62.8084 19.9101C63.7855 19.5053 64.19 18.3374 63.6724 17.4151C60.6008 11.9411 56.0584 7.39894 50.5844 4.32725C49.6621 3.80968 48.4942 4.21423 48.0894 5.19133L46.1587 9.85172C45.8244 10.6587 46.1265 11.5959 46.8791 12.039Z" fill="#BE4DD8"/>
<path d="M64.7545 43.9587C65.7292 44.3623 66.84 43.8268 67.1279 42.8118C67.9639 39.8655 68.4127 36.758 68.4127 33.5474C68.4127 30.3364 67.964 27.2285 67.1276 24.2818C66.8396 23.2669 65.7287 22.7314 64.754 23.1351L60.0915 25.0668C59.2824 25.402 58.8352 26.2813 59.0563 27.1287C59.5915 29.18 59.8773 31.3307 59.8773 33.5472C59.8773 35.7636 59.5915 37.9144 59.0563 39.9655C58.8352 40.813 59.2825 41.6924 60.0918 42.0276L64.7545 43.9587Z" fill="#FF3838"/>
<path d="M12.0394 21.1205C14.2434 17.3767 17.3772 14.243 21.121 12.039C21.8736 11.5959 22.1756 10.6587 21.8413 9.85172L19.9106 5.19133C19.5058 4.21423 18.338 3.80968 17.4156 4.32725C11.9415 7.3988 7.3993 11.9411 4.32761 17.4151C3.81004 18.3375 4.21459 19.5053 5.19169 19.9101L9.85208 21.8408C10.6589 22.1751 11.5962 21.8731 12.0394 21.1205Z" fill="#00C5F3"/>
<path d="M55.9609 46.8791C53.7569 50.6229 50.6232 53.7566 46.8795 55.9607C46.1268 56.4037 45.8248 57.341 46.1591 58.148L48.0898 62.8083C48.4946 63.7854 49.6626 64.19 50.5848 63.6724C56.0591 60.6006 60.6014 56.0581 63.6731 50.5837C64.1906 49.6614 63.786 48.4934 62.8087 48.0887L58.1479 46.1586C57.3411 45.8245 56.404 46.1266 55.9609 46.8791Z" fill="#FFB454"/>
<path d="M42.4806 59.6788C42.1453 58.8697 41.266 58.4225 40.4186 58.6436C38.3674 59.1787 36.2166 59.4647 33.9999 59.4647C31.7833 59.4647 29.6325 59.1789 27.5813 58.6436C26.7339 58.4225 25.8546 58.8698 25.5193 59.6788L23.591 64.3335L23.5878 64.3413C23.184 65.316 23.7195 66.4268 24.7345 66.7149C27.6811 67.5512 30.7889 68 33.9999 68C37.211 68 40.3188 67.5512 43.2655 66.7149C44.2804 66.4268 44.8159 65.316 44.4122 64.3413L42.4806 59.6788Z" fill="#FFE705"/>
<path d="M8.53546 33.9999C8.53546 31.7834 8.82127 29.6325 9.35637 27.5814C9.57737 26.734 9.1302 25.8547 8.32123 25.5195L3.65872 23.5878C2.68401 23.184 1.57316 23.7195 1.28509 24.7345C0.448773 27.6811 0 30.7889 0 33.9999C0 37.2106 0.448773 40.3181 1.28483 43.2644C1.5729 44.2794 2.68348 44.8149 3.65819 44.4113L8.32084 42.4802C9.12993 42.1451 9.57724 41.2656 9.35624 40.4181C8.82114 38.3671 8.53546 36.2165 8.53546 33.9999Z" fill="#00B9A0"/>
<path d="M19.9101 62.8085L21.8408 58.1482C22.1751 57.3413 21.8731 56.4041 21.1204 55.9609C17.3767 53.7568 14.243 50.6231 12.039 46.8793C11.5959 46.1266 10.6588 45.8246 9.85197 46.1588L5.19132 48.0889C4.21408 48.4936 3.8094 49.6616 4.32697 50.5839C7.39866 56.0583 11.941 60.6008 17.4152 63.6726C18.3375 64.1902 19.5053 63.7856 19.9101 62.8085Z" fill="#AAE745"/>
<path d="M34 68C37.211 68 40.3188 67.5512 43.2655 66.7149C44.2805 66.4268 44.816 65.316 44.4122 64.3413L42.4806 59.6788C42.1454 58.8697 41.266 58.4225 40.4187 58.6436C38.3674 59.1787 36.2166 59.4647 34 59.4647V68Z" fill="#FFCB00"/>
<path d="M36.574 36.9574C39.3187 34.9852 39.1929 31.9415 39.1929 31.8661C39.1929 28.4084 36.3974 25.6062 32.9331 25.6062H30.7992C29.699 25.6062 28.807 26.4982 28.807 27.5984V40.4015C28.807 41.5017 29.699 42.3937 30.7992 42.3937C31.8994 42.3937 32.7914 41.5017 32.7914 40.4015V38.8095L35.792 41.8101C36.5698 42.588 37.8312 42.5881 38.6094 41.8101C39.3874 41.0322 39.3874 39.7708 38.6094 38.9928L36.574 36.9574ZM32.9331 34.1417H32.7914V29.5906H32.933C34.1892 29.5906 35.2084 30.6061 35.2084 31.8661C35.2086 33.1015 34.2082 34.1417 32.9331 34.1417Z" fill="#08475E"/>
<path d="M39.193 31.8661C39.193 28.7718 36.9535 26.2041 34 25.6982V29.8561C34.7186 30.2378 35.2086 30.9928 35.2086 31.8661C35.2086 32.7254 34.724 33.4893 34 33.8752V40.0181L35.792 41.8101C36.5698 42.588 37.8312 42.5881 38.6094 41.8101C39.3874 41.0322 39.3874 39.7708 38.6094 38.9928L36.574 36.9574C39.3186 34.9852 39.193 31.9415 39.193 31.8661Z" fill="#05303D"/>
</g>
<defs>
<clipPath id="clip0_76_641">
<rect width="68" height="68" fill="white"/>
</clipPath>
</defs>
</svg>
