<svg width="72" height="70" viewBox="0 0 72 70" fill="none" xmlns="http://www.w3.org/2000/svg">
<g clip-path="url(#clip0_460_5)">
<path d="M34 68C52.7777 68 68 52.7777 68 34C68 15.2223 52.7777 0 34 0C15.2223 0 0 15.2223 0 34C0 52.7777 15.2223 68 34 68Z" fill="url(#paint0_radial_460_5)"/>
</g>
<path d="M47.875 8H20.25C17.9028 8 16 9.90279 16 12.25V65.375C16 67.7222 17.9028 69.625 20.25 69.625H47.875C50.2222 69.625 52.125 67.7222 52.125 65.375V12.25C52.125 9.90279 50.2222 8 47.875 8Z" fill="#3D9AE2"/>
<path d="M47.875 13.3125V64.3125C47.875 64.5943 47.7631 64.8645 47.5638 65.0638C47.3645 65.2631 47.0943 65.375 46.8125 65.375H21.3125C21.0307 65.375 20.7605 65.2631 20.5612 65.0638C20.3619 64.8645 20.25 64.5943 20.25 64.3125V13.3125C20.25 13.0307 20.3619 12.7605 20.5612 12.5612C20.7605 12.3619 21.0307 12.25 21.3125 12.25H25.5625C25.5642 12.8131 25.7886 13.3526 26.1868 13.7507C26.5849 14.1489 27.1244 14.3733 27.6875 14.375H40.4375C41.0006 14.3733 41.5401 14.1489 41.9382 13.7507C42.3364 13.3526 42.5608 12.8131 42.5625 12.25H46.8125C47.0943 12.25 47.3645 12.3619 47.5638 12.5612C47.7631 12.7605 47.875 13.0307 47.875 13.3125Z" fill="#D1E7F8"/>
<path d="M38.2566 56.4383L45.2691 50.6689L47.7235 46.4189H42.9316C42.1549 46.4175 41.406 46.13 40.8278 45.6115L39.7441 47.4814L38.2566 56.4383Z" fill="#FFCD00"/>
<path d="M54.6192 40.044C54.9135 40.042 55.2042 39.9793 55.4732 39.8598C55.7422 39.7403 55.9836 39.5665 56.1823 39.3494C56.3809 39.1322 56.5327 38.8764 56.6279 38.5979C56.7231 38.3194 56.7598 38.0242 56.7357 37.7309C56.6694 37.1884 56.404 36.6898 55.9909 36.3319C55.5779 35.974 55.0466 35.7823 54.5002 35.794H53.8542L51.3998 40.044H54.6192Z" fill="#FF9478"/>
<path d="M51.3998 27.2939H48.2983C46.9903 27.294 45.7054 27.6389 44.5733 28.2941C43.4411 28.9492 42.5018 29.8914 41.85 31.0254L35.2817 42.4558C35.1428 42.6979 35.053 42.965 35.0174 43.2417C34.9818 43.5185 35.001 43.7996 35.074 44.069C35.147 44.3383 35.2724 44.5907 35.4429 44.8116C35.6134 45.0325 35.8258 45.2176 36.0679 45.3564C36.74 45.7449 37.5062 45.9405 38.2822 45.9218C39.0583 45.903 39.8141 45.6706 40.4667 45.2502C40.0084 44.6885 39.7538 43.9882 39.7442 43.2633C39.7805 42.3928 40.1536 41.5704 40.7848 40.9697C41.416 40.3691 42.2559 40.0371 43.1272 40.0439H44.0367L48.2442 32.7552L51.3998 27.2939Z" fill="#FFB8A5"/>
<path d="M63.3316 19.3889L57.8066 16.2014L51.3997 27.2939L48.2441 32.7552L44.0366 40.0439H51.3997L53.8541 35.7939L58.7629 27.2939L63.3316 19.3889Z" fill="#FFCD00"/>
<path d="M60.4629 11.5955L57.8066 16.1962L63.3316 19.3837L65.9879 14.783C66.1972 14.4203 66.333 14.0198 66.3875 13.6045C66.442 13.1893 66.4143 12.7674 66.3057 12.3628C66.1972 11.9583 66.0101 11.5792 65.755 11.247C65.4999 10.9148 65.1819 10.6361 64.8191 10.4268C64.0865 10.0041 63.2159 9.88976 62.399 10.1089C61.582 10.3281 60.8856 10.8629 60.4629 11.5955Z" fill="#A7A9AC"/>
<path d="M24.5 18.625H33V27.125H24.5V18.625Z" fill="#5EAC24"/>
<path d="M58.7629 27.2939H61.196C62.1307 27.2939 63.054 27.4993 63.9004 27.8957C64.7469 28.2921 65.4958 28.8698 66.0941 29.5879L67.5816 31.375C68.18 32.0931 68.9289 32.6708 69.7754 33.0672C70.6218 33.4636 70.9345 33.669 71.8691 33.6689V48.5439H64.0637C62.744 48.5441 61.4423 48.2367 60.2621 47.6461L59.6012 47.3168C58.421 46.7262 57.1193 46.4188 55.7996 46.4189H42.9316C42.155 46.4175 41.4061 46.13 40.8279 45.6114C40.7736 45.5748 40.7237 45.532 40.6791 45.4839C40.6028 45.4112 40.5318 45.3331 40.4666 45.2502C40.0084 44.6885 39.7538 43.9882 39.7441 43.2633C39.7805 42.3928 40.1536 41.5704 40.7848 40.9697C41.416 40.3691 42.2559 40.0371 43.1271 40.0439H54.6191C54.9135 40.042 55.2042 39.9793 55.4732 39.8598C55.7422 39.7403 55.9835 39.5665 56.1822 39.3494C56.3809 39.1322 56.5326 38.8764 56.6279 38.5979C56.7231 38.3194 56.7598 38.0242 56.7356 37.7309C56.6694 37.1884 56.404 36.6898 55.9909 36.3319C55.5778 35.974 55.0466 35.7823 54.5001 35.7939H53.8541L58.7629 27.2939Z" fill="#FFAC96"/>
<path d="M20.25 39.875V64.3125C20.25 64.5943 20.3619 64.8645 20.5612 65.0638C20.7605 65.2631 21.0307 65.375 21.3125 65.375H45.75C42.4007 65.377 39.084 64.7187 35.9893 63.4379C32.8946 62.1571 30.0827 60.2789 27.7144 57.9106C25.3461 55.5423 23.4679 52.7304 22.1871 49.6357C20.9063 46.5411 20.248 43.2243 20.25 39.875Z" fill="#9BC9FF"/>
<path d="M34.1517 57.6634L32.8618 58.5229C33.1462 57.6323 33.0839 56.6671 32.6874 55.8204C32.291 54.9737 31.5896 54.3078 30.7234 53.9559C29.8572 53.6039 28.8901 53.5918 28.0155 53.9221C27.1408 54.2523 26.423 54.9005 26.0055 55.7371L23.549 60.6501C23.4866 60.7749 23.4495 60.9109 23.4397 61.0501C23.4298 61.1894 23.4475 61.3292 23.4917 61.4616C23.581 61.729 23.7728 61.95 24.025 62.0759C24.2772 62.2019 24.5691 62.2225 24.8365 62.1332C24.9689 62.089 25.0913 62.0192 25.1968 61.9277C25.3022 61.8362 25.3885 61.7248 25.4509 61.5999L27.9074 56.6869C28.0871 56.3289 28.3957 56.0521 28.7711 55.9122C29.1466 55.7723 29.561 55.7796 29.9313 55.9327C30.3015 56.0858 30.6001 56.3734 30.7671 56.7375C30.934 57.1017 30.957 57.5156 30.8314 57.8961L29.8666 60.7892C29.7976 60.9988 29.7955 61.2246 29.8606 61.4354C29.9257 61.6462 30.0548 61.8315 30.23 61.9656C30.4052 62.0996 30.6178 62.1759 30.8383 62.1836C31.0587 62.1914 31.2762 62.1304 31.4604 62.009L35.3258 59.4314C35.4675 59.3369 35.6298 59.2779 35.7991 59.2593C35.9684 59.2407 36.1397 59.263 36.2985 59.3245C36.4574 59.3859 36.5991 59.4847 36.7118 59.6124C36.8245 59.7401 36.9049 59.893 36.9461 60.0582L37.2776 61.3832C37.3353 61.6137 37.4686 61.8181 37.6562 61.9639C37.8438 62.1097 38.0749 62.1884 38.3125 62.1875H43.625C43.9067 62.1875 44.177 62.0756 44.3763 61.8763C44.5755 61.677 44.6875 61.4068 44.6875 61.125C44.6875 60.8432 44.5755 60.573 44.3763 60.3737C44.177 60.1744 43.9067 60.0625 43.625 60.0625H39.1423L39.0126 59.5429C38.8888 59.0473 38.6477 58.5886 38.3096 58.2056C37.9714 57.8227 37.5462 57.5266 37.0697 57.3423C36.5932 57.1581 36.0794 57.0911 35.5715 57.1469C35.0637 57.2028 34.5768 57.3799 34.1517 57.6634Z" fill="#808285"/>
<path d="M36.1875 18.625C36.1875 18.9068 36.2994 19.177 36.4987 19.3763C36.698 19.5756 36.9682 19.6875 37.25 19.6875H43.625C43.9068 19.6875 44.177 19.5756 44.3763 19.3763C44.5756 19.177 44.6875 18.9068 44.6875 18.625C44.6875 18.3432 44.5756 18.073 44.3763 17.8737C44.177 17.6744 43.9068 17.5625 43.625 17.5625H37.25C36.9682 17.5625 36.698 17.6744 36.4987 17.8737C36.2994 18.073 36.1875 18.3432 36.1875 18.625Z" fill="#2488FF"/>
<path d="M43.625 21.8125H37.25C36.9682 21.8125 36.698 21.9244 36.4987 22.1237C36.2994 22.323 36.1875 22.5932 36.1875 22.875C36.1875 23.1568 36.2994 23.427 36.4987 23.6263C36.698 23.8256 36.9682 23.9375 37.25 23.9375H43.625C43.9068 23.9375 44.177 23.8256 44.3763 23.6263C44.5756 23.427 44.6875 23.1568 44.6875 22.875C44.6875 22.5932 44.5756 22.323 44.3763 22.1237C44.177 21.9244 43.9068 21.8125 43.625 21.8125Z" fill="#2488FF"/>
<path d="M41.5 26.0625H37.25C36.9682 26.0625 36.698 26.1744 36.4987 26.3737C36.2994 26.573 36.1875 26.8432 36.1875 27.125C36.1875 27.4068 36.2994 27.677 36.4987 27.8763C36.698 28.0756 36.9682 28.1875 37.25 28.1875H41.5C41.7818 28.1875 42.052 28.0756 42.2513 27.8763C42.4506 27.677 42.5625 27.4068 42.5625 27.125C42.5625 26.8432 42.4506 26.573 42.2513 26.3737C42.052 26.1744 41.7818 26.0625 41.5 26.0625Z" fill="#2488FF"/>
<path d="M36.1875 32.4375H24.5C24.2182 32.4375 23.948 32.5494 23.7487 32.7487C23.5494 32.948 23.4375 33.2182 23.4375 33.5C23.4375 33.7818 23.5494 34.052 23.7487 34.2513C23.948 34.4506 24.2182 34.5625 24.5 34.5625H36.1875C36.4693 34.5625 36.7395 34.4506 36.9388 34.2513C37.1381 34.052 37.25 33.7818 37.25 33.5C37.25 33.2182 37.1381 32.948 36.9388 32.7487C36.7395 32.5494 36.4693 32.4375 36.1875 32.4375Z" fill="#2488FF"/>
<path d="M24.5 38.8125H33C33.2818 38.8125 33.552 38.7006 33.7513 38.5013C33.9506 38.302 34.0625 38.0318 34.0625 37.75C34.0625 37.4682 33.9506 37.198 33.7513 36.9987C33.552 36.7994 33.2818 36.6875 33 36.6875H24.5C24.2182 36.6875 23.948 36.7994 23.7487 36.9987C23.5494 37.198 23.4375 37.4682 23.4375 37.75C23.4375 38.0318 23.5494 38.302 23.7487 38.5013C23.948 38.7006 24.2182 38.8125 24.5 38.8125Z" fill="#2488FF"/>
<path d="M24.5 43.0625H33C33.2818 43.0625 33.552 42.9506 33.7513 42.7513C33.9506 42.552 34.0625 42.2818 34.0625 42C34.0625 41.7182 33.9506 41.448 33.7513 41.2487C33.552 41.0494 33.2818 40.9375 33 40.9375H24.5C24.2182 40.9375 23.948 41.0494 23.7487 41.2487C23.5494 41.448 23.4375 41.7182 23.4375 42C23.4375 42.2818 23.5494 42.552 23.7487 42.7513C23.948 42.9506 24.2182 43.0625 24.5 43.0625Z" fill="#2488FF"/>
<path d="M24.5 47.3125H33C33.2818 47.3125 33.552 47.2006 33.7513 47.0013C33.9506 46.802 34.0625 46.5318 34.0625 46.25C34.0625 45.9682 33.9506 45.698 33.7513 45.4987C33.552 45.2994 33.2818 45.1875 33 45.1875H24.5C24.2182 45.1875 23.948 45.2994 23.7487 45.4987C23.5494 45.698 23.4375 45.9682 23.4375 46.25C23.4375 46.5318 23.5494 46.802 23.7487 47.0013C23.948 47.2006 24.2182 47.3125 24.5 47.3125Z" fill="#2488FF"/>
<defs>
<radialGradient id="paint0_radial_460_5" cx="0" cy="0" r="1" gradientUnits="userSpaceOnUse" gradientTransform="translate(34 34) rotate(90) scale(34)">
<stop offset="0.340069" stop-color="#FE6C66"/>
<stop offset="1" stop-color="#DC271F"/>
</radialGradient>
<clipPath id="clip0_460_5">
<rect width="68" height="68" fill="white"/>
</clipPath>
</defs>
</svg>
