<svg width="68" height="68" viewBox="0 0 68 68" fill="none" xmlns="http://www.w3.org/2000/svg">
<path d="M13.952 61.0916L64.0628 47.9297C65.6576 44.089 66.5395 39.878 66.5395 35.4609C66.5395 17.4903 51.9711 2.92188 34 2.92188C16.0293 2.92188 1.46094 17.4897 1.46094 35.4609C1.46094 45.869 6.34802 55.1353 13.952 61.0916Z" fill="#3A0F8D"/>
<path d="M51.7859 1.36029C51.5245 0.384946 50.5133 -0.198702 49.538 0.0622533L7.78924 11.2491C6.8139 11.5101 6.23025 12.5217 6.49121 13.4965L20.2845 64.9743C24.453 66.9146 29.0994 67.9999 34 67.9999C47.6672 67.9999 59.3645 59.5726 64.1842 47.6319L51.7859 1.36029Z" fill="#CCEBFF"/>
<path d="M18.85 8.28516L7.78924 11.2491C6.8139 11.51 6.23025 12.5217 6.49121 13.4965L18.85 59.6197V8.28516Z" fill="#B8DFF4"/>
<path d="M60.5941 6.37393C60.5941 5.36435 59.7682 4.53894 58.7591 4.53894H15.537C14.528 4.53894 13.702 5.36435 13.702 6.37393V60.8919C19.2672 65.339 26.3223 67.9999 34 67.9999C44.9876 67.9999 54.7027 62.5536 60.5941 54.2134V6.37393Z" fill="#E6FCFF"/>
<path d="M25.8279 6.37393C25.8279 5.36435 26.6538 4.53894 27.6634 4.53894H15.537C14.528 4.53894 13.702 5.36435 13.702 6.37393V60.8919C17.221 63.7043 21.3367 65.8007 25.8279 66.9634V6.37393Z" fill="#CCEBFF"/>
<path d="M54.3011 16.3126C53.7045 16.3126 53.2205 16.7961 53.2205 17.3928V23.5063H43.9459V17.3928C43.9459 16.7961 43.4624 16.3126 42.8658 16.3126C42.2691 16.3126 41.7856 16.7961 41.7856 17.3928V23.5063H32.5105V17.3928C32.5105 16.7961 32.027 16.3126 31.4304 16.3126C30.8338 16.3126 30.3503 16.7961 30.3503 17.3928V23.5063H21.0752V17.3928C21.0752 16.7961 20.5917 16.3126 19.9951 16.3126C19.3984 16.3126 18.9149 16.7961 18.9149 17.3928V64.0965C18.9149 64.1687 18.9222 64.2392 18.9357 64.3082C19.5224 64.6148 20.1185 64.9054 20.7255 65.1767H47.274C48.6747 64.55 50.0226 63.8268 51.3102 63.0159H43.9454V58.5029H53.2205V61.7168C53.9649 61.1705 54.6861 60.5947 55.3807 59.9887V17.3928C55.3813 16.7967 54.8977 16.3126 54.3011 16.3126ZM30.3503 63.0159H21.0757V58.5029H30.3503V63.0159ZM30.3503 56.3426H21.0757V51.9359H30.3503V56.3426ZM30.3503 49.7751H21.0757V45.3684H30.3503V49.7751ZM30.3503 43.2082H21.0757V38.8015H30.3503V43.2082ZM30.3503 36.6407H21.0757V32.234H30.3503V36.6407ZM30.3503 30.0732H21.0757V25.6666H30.3503V30.0732ZM41.7856 63.0159H32.5111V58.5029H41.7856V63.0159ZM41.7856 56.3426H32.5111V51.9359H41.7856V56.3426ZM41.7856 49.7751H32.5111V45.3684H41.7856V49.7751ZM41.7856 43.2082H32.5111V38.8015H41.7856V43.2082ZM41.7856 36.6407H32.5111V32.234H41.7856V36.6407ZM41.7856 30.0732H32.5111V25.6666H41.7856V30.0732ZM53.2205 56.3426H43.9459V51.9359H53.2205V56.3426ZM53.2205 49.7751H43.9459V45.3684H53.2205V49.7751ZM53.2205 43.2082H43.9459V38.8015H53.2205V43.2082ZM53.2205 36.6407H43.9459V32.234H53.2205V36.6407ZM53.2205 30.0732H43.9459V25.6666H53.2205V30.0732Z" fill="#CCEBFF"/>
<path d="M25.8279 65.1767V63.0159H21.0757V58.5029H25.8279V56.3426H21.0757V51.9359H25.8279V49.7751H21.0757V45.3684H25.8279V43.2082H21.0757V38.8015H25.8279V36.6407H21.0757V32.234H25.8279V30.0732H21.0757V25.6666H25.8279V23.5063H21.0757V17.3928C21.0757 16.7961 20.5922 16.3126 19.9951 16.3126C19.3984 16.3126 18.9149 16.7961 18.9149 17.3928V64.096C18.9149 64.1676 18.9222 64.2371 18.9352 64.3046C19.0026 64.3399 19.07 64.3746 19.1375 64.4094C19.2978 64.4919 19.4586 64.5733 19.6205 64.6532C19.7481 64.716 19.8757 64.7788 20.0039 64.8395C20.1471 64.9085 20.2918 64.9749 20.4366 65.0418C20.5351 65.0869 20.6337 65.1321 20.7333 65.1767H25.8279Z" fill="#B8DFF4"/>
<path d="M23.7486 44.6157C21.1089 40.0435 15.2621 38.4767 10.6899 41.1169C6.11772 43.7565 4.55095 49.6034 7.19111 54.1756C9.83076 58.7477 15.6776 60.3145 20.2498 57.6743C24.822 55.0347 26.3882 49.1878 23.7486 44.6157Z" fill="#FFE600"/>
<path d="M20.6062 55.1903C20.3733 54.7867 20.3411 54.3239 20.476 53.9135L14.0782 42.8325C13.6559 42.7438 13.2709 42.4844 13.038 42.0813C12.6401 41.3918 12.8242 40.528 13.4369 40.0538C12.4953 40.2588 11.5693 40.61 10.6899 41.1179C6.11772 43.7575 4.55095 49.6044 7.19111 54.1766C9.83076 58.7493 15.6776 60.316 20.2498 57.6759C21.1063 57.1814 21.8575 56.5744 22.4951 55.8844C21.7937 56.135 20.9922 55.8585 20.6062 55.1903Z" fill="#F4B500"/>
<path d="M21.4632 45.9349C19.552 42.625 15.3196 41.4909 12.0092 43.4021C8.69923 45.3134 7.56514 49.5457 9.47639 52.8557C11.3876 56.1661 15.62 57.3002 18.9299 55.3889C22.2404 53.4777 23.3745 49.2453 21.4632 45.9349Z" fill="#F4B500"/>
<path d="M12.6779 51.0093C11.0868 48.2535 11.6076 44.86 13.7363 42.6971C13.1454 42.8502 12.5643 43.0831 12.0097 43.4032C8.69978 45.3145 7.56569 49.5474 9.47694 52.8573C11.3882 56.1672 15.6206 57.3018 18.9305 55.3906C19.4851 55.07 19.9774 54.684 20.4054 54.2487C17.468 55.0103 14.2686 53.7647 12.6779 51.0093Z" fill="#EE9D00"/>
<path d="M35.0993 38.7807C32.4597 34.2085 26.6128 32.6418 22.0407 35.2819C17.4685 37.9216 15.9017 43.7679 18.5419 48.3406C21.1815 52.9128 27.0284 54.479 31.6006 51.8394C36.1727 49.1992 37.7395 43.3529 35.0993 38.7807Z" fill="#FFE600"/>
<path d="M31.9575 49.3548C31.7246 48.9517 31.6924 48.4885 31.8273 48.0781L25.4295 36.9971C25.0066 36.9089 24.6217 36.6495 24.3887 36.2458C23.9908 35.5564 24.1755 34.6926 24.7877 34.2184C23.8466 34.4238 22.9205 34.7751 22.0412 35.2824C17.469 37.9226 15.9022 43.7689 18.5419 48.3416C21.1821 52.9138 27.0289 54.4806 31.6011 51.8409C32.4576 51.3465 33.2088 50.739 33.8464 50.049C33.145 50.2996 32.343 50.0231 31.9575 49.3548Z" fill="#F9CE00"/>
<path d="M32.814 40.1C30.9027 36.7901 26.6704 35.656 23.3605 37.5673C20.0505 39.478 18.9164 43.7109 20.8272 47.0208C22.7384 50.3307 26.9708 51.4648 30.2812 49.5536C33.5912 47.6429 34.7253 43.41 32.814 40.1Z" fill="#F4B500"/>
<path d="M24.0292 45.1739C22.438 42.418 22.9589 39.0246 25.0876 36.8617C24.4961 37.0153 23.9156 37.2477 23.361 37.5683C20.0511 39.479 18.9164 43.7119 20.8277 47.0218C22.739 50.3318 26.9718 51.4664 30.2818 49.5551C30.8364 49.235 31.3282 48.8485 31.7567 48.4133C28.8193 49.1749 25.6198 47.9292 24.0292 45.1739Z" fill="#EE9D00"/>
<path d="M54.4235 11.964H30.0623V18.1226H55.3859V12.9258C55.3859 12.3946 54.9548 11.964 54.4235 11.964Z" fill="#8CECF8"/>
<path d="M19.8726 11.964C19.3414 11.964 18.9108 12.3946 18.9108 12.9258V18.1226H30.3503V11.964H19.8726Z" fill="#51E0F4"/>
<path d="M25.8279 11.964H19.8726C19.3413 11.964 18.9102 12.3946 18.9102 12.9258V18.1226H25.8279V11.964Z" fill="#15D4F0"/>
<path d="M59.6644 19.4695C59.6629 19.6106 59.6457 19.7538 59.6074 19.8965L59.0299 22.0521C59.1358 22.3182 59.1602 22.6196 59.0787 22.9169L55.3138 36.5924C55.1483 37.1937 55.5016 37.8152 56.1029 37.9807C56.1055 37.9812 56.1081 37.9823 56.1101 37.9828C56.7093 38.1431 57.3262 37.7903 57.4912 37.1922L61.2556 23.5151C61.6924 21.9239 61.0003 20.2933 59.6644 19.4695Z" fill="#7C9DFC"/>
<path d="M59.3142 27.5767C58.6896 27.5767 58.1739 27.114 58.0883 26.5132L55.3138 36.5924C55.1483 37.1937 55.5016 37.8152 56.1029 37.9807C56.1055 37.9812 56.1081 37.9823 56.1101 37.9828C56.7093 38.1431 57.3262 37.7903 57.4912 37.1921L60.2579 27.1394C60.0307 27.4066 59.6924 27.5767 59.3142 27.5767Z" fill="#5F83FA"/>
<path d="M48.3531 43.0146L52.6342 27.0366L56.7213 28.1318L52.4402 44.1098L48.3531 43.0146Z" fill="#7C9DFC"/>
<path d="M51.3875 39.8691C50.4314 39.6128 49.7896 38.7703 49.7434 37.8318L48.3546 43.0141L52.4417 44.1092L53.8305 38.927C53.3211 39.7166 52.3442 40.1254 51.3875 39.8691Z" fill="#5F83FA"/>
<path d="M55.8435 18.1341L58.396 18.8184C58.4582 18.835 58.5184 18.8552 58.5771 18.8781L59.6878 14.8444C59.9109 14.0325 59.4341 13.1936 58.6227 12.97C58.6191 12.9695 58.6154 12.9684 58.6123 12.9674C57.804 12.7505 56.9709 13.2268 56.7488 14.0351L55.6318 18.0926C55.7024 18.1025 55.7729 18.1154 55.8435 18.1341Z" fill="#7C9DFC"/>
<path d="M58.2325 16.0111C57.3843 16.0111 56.6881 15.3626 56.6108 14.5352L55.6313 18.0926C55.7018 18.1024 55.7729 18.1149 55.8435 18.1341L58.396 18.8184C58.4582 18.835 58.5184 18.8552 58.577 18.878L59.5524 15.3341C59.2566 15.7434 58.7762 16.0111 58.2325 16.0111Z" fill="#5F83FA"/>
<path d="M45.7845 60.7813C45.1822 60.62 44.8247 60.0011 44.9861 59.3987L45.7321 56.6149C45.8934 56.0125 46.5124 55.6551 47.1147 55.8164C47.717 55.9783 48.0745 56.5972 47.9131 57.1996L47.1671 59.9834C47.0057 60.5852 46.3868 60.9427 45.7845 60.7813Z" fill="#4E2AA5"/>
<path d="M47.701 57.9907C48.6908 56.5879 49.6921 54.3711 49.8872 53.6432L52.49 43.9303L48.4029 42.8351L45.8001 52.548C45.605 53.2759 45.3643 55.6966 45.5199 57.4061L47.701 57.9907Z" fill="#5F83FA"/>
<path d="M55.7864 28.5588L53.2339 27.8745C52.3125 27.6276 51.7657 26.6808 52.0127 25.7594L54.0064 18.3183C54.2534 17.3969 55.2002 16.8501 56.1216 17.097L58.674 17.7808C59.5954 18.0277 60.1422 18.9751 59.8953 19.8965L57.9016 27.3371C57.6546 28.2585 56.7078 28.8053 55.7864 28.5588Z" fill="#5F83FA"/>
<path d="M54.8365 26.9973L57.071 18.6581C57.2515 17.9847 57.9436 17.5852 58.617 17.7658L58.674 17.7808L56.1216 17.097C55.2002 16.8501 54.2528 17.3969 54.0059 18.3183L52.0127 25.7594C51.7657 26.6808 52.3125 27.6276 53.2339 27.8745L55.7293 28.5433C55.0559 28.3627 54.6565 27.6707 54.8365 26.9973Z" fill="#4070EA"/>
</svg>
