<svg width="68" height="68" viewBox="0 0 68 68" fill="none" xmlns="http://www.w3.org/2000/svg">
<path d="M64.7079 46.2428C65.8928 42.8681 66.5394 39.2401 66.5394 35.4607C66.5394 17.4897 51.971 2.92133 34 2.92133C16.029 2.92133 1.46069 17.4897 1.46069 35.4607C1.46069 39.2402 2.10736 42.8681 3.29218 46.2428H64.7079Z" fill="#73C3F9"/>
<path d="M3.19873 12.2668V45.9772C4.43123 49.588 6.28091 52.9128 8.6216 55.8262L28.2501 67.4924C30.1166 67.8252 32.0379 68 34.0001 68C48.2907 68 60.4288 58.7872 64.8014 45.9772V12.2668H3.19873Z" fill="#E9EFFF"/>
<path d="M11.5243 57.5514C11.5243 38.9971 11.5243 18.1442 11.5243 16.3441C11.5243 13.0486 15.5223 12.591 15.5223 12.591C15.681 12.4889 15.8269 12.3803 15.9619 12.2668H3.19873V45.9772C4.43216 49.5906 6.28596 52.9157 8.62917 55.8307L11.5243 57.5514Z" fill="#D3DCFB"/>
<path d="M25.284 18.8079H11.7102C10.5689 18.8079 9.63513 19.7415 9.63513 20.8828V36.8774C9.63513 38.0187 10.5689 38.9523 11.7102 38.9523H25.284C26.4253 38.9523 27.3591 38.0187 27.3591 36.8774V20.8828C27.359 19.7415 26.4253 18.8079 25.284 18.8079Z" fill="#FFDD40"/>
<path d="M11.7102 18.8078C10.5689 18.8078 9.63525 19.7415 9.63525 20.8828V36.8774C9.63525 38.0186 10.5689 38.9523 11.7102 38.9523H17.2876C17.3382 38.3595 17.7757 37.8687 17.9116 37.7292C17.9378 37.7024 17.9524 37.6673 17.9536 37.6299L18.4143 23.1682C18.4156 23.1277 18.3996 23.0884 18.3714 23.0591C17.1568 21.8001 18.0375 20.8129 18.3523 20.5277C18.4006 20.4839 18.4156 20.4141 18.3877 20.3551C18.3427 20.26 18.3674 20.1682 18.3984 20.1054C18.4257 20.0498 18.413 19.9841 18.3713 19.9383C18.0119 19.5435 17.8998 19.1533 17.9099 18.8076H11.7102V18.8078Z" fill="#FFB332"/>
<path d="M25.284 45.2532H11.7102C10.5689 45.2532 9.63525 46.187 9.63525 47.3281V57.0253C10.7986 58.3387 12.0672 59.5561 13.4263 60.6671L18.694 64.1797C19.5193 64.6206 20.3653 65.0279 21.2312 65.3976H25.284C26.4253 65.3976 27.3589 64.464 27.3589 63.3226V47.328C27.3589 46.187 26.4253 45.2532 25.284 45.2532Z" fill="#FFDD40"/>
<path d="M11.7102 45.2532C10.5689 45.2532 9.63525 46.187 9.63525 47.3281V57.0253C10.7986 58.3387 12.0672 59.5561 13.4263 60.6671L16.7928 62.9119L18.3989 61.862V46.8896C18.2151 46.61 18.4972 46.4688 18.4972 46.4688C18.0306 46.0528 17.8933 45.6286 17.9103 45.2533L11.7102 45.2532Z" fill="#FFB332"/>
<path d="M61.4694 0H6.53073C4.69048 0 3.19873 1.49188 3.19873 3.332V8.06026H64.8016V3.332C64.8014 1.49188 63.3097 0 61.4694 0Z" fill="#2A428C"/>
<path d="M17.4874 0H6.53073C4.69048 0 3.19873 1.49175 3.19873 3.332V8.06026H17.5068C17.4968 7.9572 17.4874 7.89823 17.4874 7.89823C16.0028 6.41365 17.4874 5.2704 17.4874 5.2704V2.83927C15.8673 1.21922 17.4874 0 17.4874 0Z" fill="#1C2E7A"/>
<path d="M9.12559 5.67523C8.22459 5.67523 7.50488 4.94065 7.50488 4.05452C7.50488 3.02735 8.45037 2.26647 9.44169 2.46608C10.2184 2.62373 10.7464 3.29643 10.7464 4.05452C10.7463 4.91886 10.0498 5.67523 9.12559 5.67523Z" fill="#FF4155"/>
<path d="M13.6232 5.67523C12.7222 5.67523 12.0024 4.94065 12.0024 4.05452C12.0024 3.02735 12.9479 2.26647 13.9392 2.46608C14.7158 2.62373 15.244 3.29643 15.244 4.05452C15.244 4.91886 14.5474 5.67523 13.6232 5.67523Z" fill="#FFDD40"/>
<path d="M18.1208 5.67523C17.2198 5.67523 16.5001 4.94065 16.5001 4.05452C16.5001 3.02735 17.4456 2.26647 18.4369 2.46608C19.2136 2.62373 19.7417 3.29643 19.7417 4.05452C19.7415 4.91886 19.0449 5.67523 18.1208 5.67523Z" fill="#38C674"/>
<path d="M19.4173 7.89825C19.4173 10.4901 17.3162 12.5911 14.7245 12.5911H64.8013V7.89825H19.4173Z" fill="#D3DCFB"/>
<path d="M19.7416 7.89825H3.19873V12.5911H15.0488C17.6405 12.5911 19.7416 10.49 19.7416 7.89825Z" fill="#4FABF7"/>
<path d="M18.4524 35.5001C19.7955 35.5001 20.9434 34.6493 21.3861 33.4584C21.3827 33.4576 21.3796 33.4568 21.3762 33.456C20.924 33.0038 20.8094 32.1466 20.7888 31.5467C20.5528 31.8216 20.3051 32.0515 20.0684 32.2352C19.6074 32.5933 19.0385 32.7877 18.4524 32.7877C17.8664 32.7877 17.2974 32.5933 16.8364 32.2352C16.5998 32.0514 16.3521 31.8215 16.1161 31.5467C16.0953 32.1465 15.9807 33.0038 15.5285 33.456C15.5252 33.4568 15.522 33.4576 15.5187 33.4584C15.9613 34.6493 17.1092 35.5001 18.4524 35.5001Z" fill="#FCAD6D"/>
<path d="M18.4524 32.7878C17.8664 32.7878 17.2974 32.5934 16.8364 32.2353C16.5998 32.0515 16.3521 31.8216 16.1161 31.5468C16.0953 32.1466 15.9807 33.0039 15.5285 33.4561C15.5252 33.4569 15.522 33.4577 15.5187 33.4585C15.7917 34.1932 16.3339 34.7978 17.0241 35.1536C17.0359 35.1532 17.0483 35.1525 17.0592 35.1524C17.1771 35.1499 17.2932 35.1148 17.3873 35.044C18.1217 34.4921 18.3702 33.4215 18.4542 32.7879C18.4536 32.7877 18.4529 32.7878 18.4524 32.7878Z" fill="#FD995B"/>
<path d="M9.63525 35.9555V36.8774C9.63525 38.0186 10.5691 38.9523 11.7103 38.9523H25.2842C26.4254 38.9523 27.3592 38.0186 27.3592 36.8774V36.0591C26.8319 35.4427 26.0727 34.9873 24.9755 34.8975C24.674 34.8728 24.5137 34.756 24.1583 34.5555C23.6684 34.2793 23.1738 34.0428 22.662 33.8477C22.0511 35.5843 20.3953 36.833 18.4524 36.833C16.5096 36.833 14.8539 35.5843 14.2428 33.8477C13.7311 34.0428 13.2365 34.2792 12.7465 34.5554C12.3912 34.7558 12.2308 34.8727 11.9293 34.8974C10.8939 34.9823 10.158 35.3916 9.63525 35.9555Z" fill="#4FABF7"/>
<path d="M13.8818 37.7368C13.8818 36.7205 14.9373 36.3166 15.5065 36.1727C15.6323 36.1409 15.7401 36.0669 15.8161 35.9668C15.0988 35.4391 14.5436 34.7032 14.2428 33.8479C13.731 34.043 13.2365 34.2794 12.7465 34.5557C12.3912 34.7561 12.2308 34.8729 11.9293 34.8977C10.8939 34.9823 10.1581 35.3917 9.63538 35.9555V36.8774C9.63538 38.0186 10.569 38.9523 11.7103 38.9523H13.3095C13.6587 38.5019 13.8818 38.0735 13.8818 37.7368Z" fill="#1E9EF4"/>
<path d="M17.6709 20.4927C15.3245 20.8124 15.1015 22.1428 15.1004 22.6308C15.1002 22.7332 15.0435 22.8281 14.9514 22.8728C13.7309 23.4666 14.389 26.3282 14.389 26.3282C14.5115 26.3364 14.6953 26.4416 14.7911 26.4878C14.8145 26.342 14.8527 26.1984 14.9068 26.0597C14.948 25.9539 14.9994 25.847 15.0638 25.7462C15.1753 25.571 15.2262 25.3645 15.2111 25.158C15.1672 24.561 15.1327 23.4402 15.9208 23.0856C16.5883 22.7852 17.4072 22.9591 17.9296 23.1327C18.2688 23.2455 18.6362 23.2455 18.9752 23.1327C19.4975 22.959 20.3164 22.7852 20.9839 23.0856C21.7696 23.4391 21.7373 24.5542 21.694 25.1528C21.6789 25.3609 21.7284 25.5697 21.8409 25.7461C21.9073 25.8502 21.9601 25.9607 22.0019 26.0697C22.0538 26.2054 22.0909 26.3455 22.1137 26.4877C22.2343 26.4293 22.4622 26.3101 22.6098 26.331C22.6278 25.7053 22.6856 25.0308 22.6856 25.0308C23.3808 21.6252 20.1974 20.1484 17.6709 20.4927Z" fill="#2A428C"/>
<path d="M18.3525 20.5279C18.3774 20.5052 18.3931 20.4756 18.399 20.444C18.153 20.444 17.909 20.4602 17.6709 20.4926C15.3245 20.8123 15.1015 22.1426 15.1004 22.6307C15.1002 22.7331 15.0435 22.828 14.9514 22.8727C13.7309 23.4665 14.389 26.3281 14.389 26.3281C14.5115 26.3363 14.6953 26.4415 14.7911 26.4877C14.8145 26.3419 14.8527 26.1983 14.9068 26.0595C14.948 25.9538 14.9994 25.847 15.0638 25.7461C15.1753 25.5709 15.2262 25.3644 15.2111 25.1579C15.1672 24.5609 15.1327 23.4401 15.9208 23.0855C16.5883 22.7851 17.4072 22.959 17.9296 23.1326C18.0866 23.1848 18.2497 23.2118 18.413 23.2156L18.4145 23.168C18.4158 23.1274 18.3998 23.0881 18.3716 23.0589C17.1572 21.8003 18.0377 20.8131 18.3525 20.5279Z" fill="#1C2E7A"/>
<path d="M18.4523 36.9166C20.4305 36.9166 22.1166 35.6458 22.7397 33.8781C22.3002 33.7064 21.8485 33.5651 21.3762 33.456C21.3568 33.4366 21.3388 33.4154 21.3206 33.3945C20.8993 34.5719 19.7729 35.417 18.4525 35.417C17.1321 35.417 16.0057 34.572 15.5844 33.3947C15.5662 33.4155 15.5481 33.4368 15.5286 33.4562C15.0563 33.5652 14.6046 33.7065 14.1652 33.8782C14.7881 35.6458 16.4741 36.9166 18.4523 36.9166Z" fill="#73C3F9"/>
<path d="M15.5843 33.3945C15.5661 33.4154 15.548 33.4366 15.5286 33.456C15.0563 33.5651 14.6046 33.7064 14.1652 33.8781C14.471 34.746 15.0343 35.4928 15.7614 36.0295C15.8264 35.9662 15.8763 35.8874 15.9047 35.798C16.0819 35.2398 16.7492 35.1589 17.0594 35.1523C17.1007 35.1514 17.1412 35.145 17.1812 35.1361C16.4417 34.7945 15.8606 34.1671 15.5843 33.3945Z" fill="#4FABF7"/>
<path d="M22.8177 26.4124C22.635 26.2449 22.2709 26.3298 22.1135 26.4323C22.1481 26.6471 22.1499 26.8668 22.1202 27.0837L21.9344 28.4365C21.9344 28.5455 21.9309 28.6526 21.9247 28.7576C22.3776 28.8943 22.6026 28.4876 22.6405 28.2086C22.6569 28.0885 22.6836 27.97 22.7205 27.8545C22.841 27.4784 23.2757 26.832 22.8177 26.4124Z" fill="#FCAD6D"/>
<path d="M14.0869 26.4124C14.2697 26.2449 14.6337 26.3298 14.7911 26.4323C14.7567 26.6471 14.7547 26.8668 14.7845 27.0837L14.9701 28.4365C14.9701 28.5455 14.9736 28.6526 14.98 28.7576C14.5271 28.8943 14.3021 28.4876 14.2641 28.2086C14.2478 28.0885 14.2211 27.97 14.1842 27.8545C14.0637 27.4784 13.629 26.832 14.0869 26.4124Z" fill="#FD995B"/>
<path d="M22.0573 26.0144C22.0155 25.9054 21.9628 25.7949 21.8964 25.6907C21.7839 25.5142 21.7345 25.3056 21.7495 25.0975C21.7928 24.4989 21.7695 23.3283 20.9838 22.9747C20.3163 22.6743 19.4974 22.8483 18.9752 23.0219C18.636 23.1346 18.2685 23.1346 17.9293 23.0219C17.4071 22.8483 16.5881 22.6743 15.9206 22.9747C15.1326 23.3293 15.1115 24.5057 15.1554 25.1026C15.1705 25.3092 15.1198 25.5157 15.0081 25.6909C14.9438 25.7918 14.8922 25.8986 14.8511 26.0043C14.7176 26.3474 14.6786 26.7192 14.7286 27.0835L14.9144 28.4366C14.9144 30.3819 15.9529 31.7041 16.8361 32.3901C17.2971 32.7481 17.8661 32.9426 18.4522 32.9426C19.0381 32.9426 19.6071 32.7481 20.0681 32.3901C20.9514 31.7041 21.9897 30.3819 21.9897 28.4366L22.1756 27.0838C22.2252 26.7231 22.1878 26.3548 22.0573 26.0144Z" fill="#F9BA8F"/>
<path d="M19.5426 32.3899C18.6594 31.704 17.6209 30.3818 17.6209 28.4365L17.4351 27.0834C17.3851 26.7192 17.4241 26.3472 17.5576 26.0042C17.5988 25.8985 17.6502 25.7917 17.7146 25.6907C17.8263 25.5156 17.877 25.309 17.8619 25.1025C17.8223 24.5648 17.8376 23.5588 18.4166 23.105C18.2519 23.1014 18.0876 23.0745 17.9295 23.0219C17.4072 22.8483 16.5883 22.6743 15.9208 22.9747C15.1328 23.3293 15.1117 24.5057 15.1555 25.1026C15.1707 25.3092 15.1198 25.5157 15.0082 25.6909C14.944 25.7918 14.8924 25.8986 14.8513 26.0043C14.7178 26.3474 14.6789 26.7192 14.7288 27.0835L14.9146 28.4366C14.9146 30.3819 15.9531 31.7041 16.8363 32.3901C17.2973 32.7481 17.8662 32.9426 18.4522 32.9426C18.9315 32.9426 19.3985 32.8104 19.8054 32.5671C19.715 32.5128 19.6265 32.455 19.5426 32.3899Z" fill="#FCAD6D"/>
<path d="M18.4524 61.9456C19.7955 61.9456 20.9434 61.0948 21.3861 59.9038C21.3827 59.903 21.3796 59.9022 21.3762 59.9014C20.924 59.4492 20.8094 58.592 20.7888 57.9921C20.5528 58.267 20.3051 58.4969 20.0684 58.6806C19.6074 59.0386 19.0385 59.2331 18.4524 59.2331C17.8664 59.2331 17.2974 59.0386 16.8364 58.6806C16.5998 58.4968 16.3521 58.2669 16.1161 57.9921C16.0953 58.5918 15.9807 59.4492 15.5285 59.9014C15.5252 59.9022 15.522 59.903 15.5187 59.9038C15.9613 61.0948 17.1092 61.9456 18.4524 61.9456Z" fill="#FCAD6D"/>
<path d="M18.4524 59.2332C17.8664 59.2332 17.2974 59.0387 16.8364 58.6807C16.5998 58.4969 16.3521 58.267 16.1161 57.9922C16.0953 58.592 15.9807 59.4493 15.5285 59.9015C15.5252 59.9023 15.522 59.9031 15.5187 59.9039C15.7917 60.6386 16.3339 61.2432 17.0241 61.599C17.0359 61.5986 17.0483 61.5979 17.0592 61.5978C17.1771 61.5953 17.2932 61.5602 17.3873 61.4893C18.1217 60.9373 18.3702 59.8667 18.4542 59.2332C18.4536 59.2332 18.4529 59.2332 18.4524 59.2332Z" fill="#FD995B"/>
<path d="M17.6709 46.9382C15.3245 47.2579 15.1015 48.5882 15.1004 49.0763C15.1002 49.1787 15.0435 49.2736 14.9514 49.3183C13.7309 49.9121 14.389 52.7737 14.389 52.7737C14.5115 52.7819 14.6953 52.8871 14.7911 52.9335C14.8145 52.7876 14.8527 52.6441 14.9068 52.5053C14.948 52.3996 14.9994 52.2927 15.0638 52.1918C15.1753 52.0168 15.2262 51.8101 15.2111 51.6036C15.1672 51.0066 15.1327 49.8858 15.9208 49.5312C16.5883 49.2308 17.4072 49.4048 17.9296 49.5784C18.2688 49.6911 18.6362 49.6911 18.9752 49.5784C19.4975 49.4048 20.3164 49.2308 20.9839 49.5312C21.7696 49.8848 21.7373 50.9999 21.694 51.5984C21.6789 51.8066 21.7284 52.0153 21.8409 52.1917C21.9073 52.2958 21.9601 52.4063 22.0019 52.5154C22.0538 52.651 22.0909 52.7911 22.1137 52.9333C22.2343 52.8749 22.4622 52.7558 22.6098 52.7766C22.6278 52.1509 22.6856 51.4764 22.6856 51.4764C23.3808 48.0707 20.1974 46.5939 17.6709 46.9382Z" fill="#2A428C"/>
<path d="M18.3525 46.9734C18.3774 46.9507 18.3931 46.9211 18.399 46.8895C18.153 46.8895 17.909 46.9057 17.6709 46.9381C15.3245 47.2578 15.1015 48.5881 15.1004 49.0762C15.1002 49.1786 15.0435 49.2735 14.9514 49.3182C13.7309 49.912 14.389 52.7736 14.389 52.7736C14.5115 52.7818 14.6953 52.887 14.7911 52.9334C14.8145 52.7875 14.8527 52.644 14.9068 52.5052C14.948 52.3995 14.9994 52.2925 15.0638 52.1917C15.1753 52.0167 15.2262 51.81 15.2111 51.6035C15.1672 51.0065 15.1327 49.8857 15.9208 49.5311C16.5883 49.2307 17.4072 49.4047 17.9296 49.5783C18.0866 49.6305 18.2497 49.6574 18.413 49.6613L18.4145 49.6136C18.4158 49.5731 18.3998 49.5338 18.3716 49.5045C17.1572 48.2457 18.0377 47.2584 18.3525 46.9734Z" fill="#1C2E7A"/>
<path d="M22.8177 52.8579C22.635 52.6904 22.2709 52.7753 22.1135 52.8778C22.1481 53.0926 22.1499 53.3123 22.1202 53.5291L21.9344 54.882C21.9344 54.991 21.9309 55.0981 21.9247 55.2031C22.3776 55.3398 22.6026 54.9331 22.6405 54.6541C22.6569 54.5339 22.6836 54.4155 22.7205 54.3C22.841 53.9237 23.2757 53.2775 22.8177 52.8579Z" fill="#FCAD6D"/>
<path d="M14.0869 52.8579C14.2697 52.6904 14.6337 52.7753 14.7911 52.8778C14.7567 53.0926 14.7547 53.3123 14.7845 53.5291L14.9701 54.882C14.9701 54.991 14.9736 55.0981 14.98 55.2031C14.5271 55.3398 14.3021 54.9331 14.2641 54.6541C14.2478 54.5339 14.2211 54.4155 14.1842 54.3C14.0637 53.9237 13.629 53.2775 14.0869 52.8579Z" fill="#FD995B"/>
<path d="M22.0573 52.4598C22.0155 52.3508 21.9628 52.2403 21.8964 52.1362C21.7839 51.9597 21.7345 51.751 21.7495 51.5429C21.7928 50.9443 21.7695 49.7737 20.9838 49.4202C20.3163 49.1197 19.4974 49.2937 18.9752 49.4673C18.636 49.5801 18.2685 49.5801 17.9293 49.4673C17.4071 49.2937 16.5881 49.1197 15.9206 49.4202C15.1326 49.7748 15.1115 50.9511 15.1554 51.5481C15.1705 51.7546 15.1198 51.9611 15.0081 52.1363C14.9438 52.2372 14.8922 52.344 14.8511 52.4497C14.7176 52.7928 14.6786 53.1647 14.7286 53.529L14.9144 54.8821C14.9144 56.8274 15.9529 58.1495 16.8361 58.8355C17.2971 59.1936 17.8661 59.388 18.4522 59.388C19.0381 59.388 19.6071 59.1936 20.0681 58.8355C20.9514 58.1495 21.9897 56.8274 21.9897 54.8821L22.1756 53.5292C22.2252 53.1685 22.1878 52.8002 22.0573 52.4598Z" fill="#F9BA8F"/>
<path d="M19.5426 58.8354C18.6594 58.1494 17.6209 56.8272 17.6209 54.8819L17.4351 53.5288C17.3851 53.1647 17.4241 52.7927 17.5576 52.4496C17.5988 52.3439 17.6502 52.2371 17.7146 52.1362C17.8263 51.961 17.877 51.7545 17.8619 51.548C17.8223 51.0102 17.8376 50.0043 18.4166 49.5505C18.2519 49.5469 18.0876 49.5199 17.9295 49.4673C17.4072 49.2937 16.5883 49.1197 15.9208 49.4202C15.1328 49.7748 15.1117 50.9511 15.1555 51.5481C15.1707 51.7546 15.1198 51.9611 15.0082 52.1363C14.944 52.2372 14.8924 52.344 14.8513 52.4497C14.7178 52.7928 14.6789 53.1647 14.7288 53.529L14.9146 54.8821C14.9146 56.8274 15.9531 58.1495 16.8363 58.8355C17.2973 59.1936 17.8662 59.388 18.4522 59.388C18.9315 59.388 19.3985 59.2559 19.8054 59.0125C19.715 58.9582 19.6265 58.9005 19.5426 58.8354Z" fill="#FCAD6D"/>
<path d="M24.9753 61.3432C24.6738 61.3185 24.5135 61.2016 24.1581 61.0012C23.6682 60.7249 23.1736 60.4884 22.6619 60.2933C22.0509 62.0299 20.3952 63.2786 18.4524 63.2786C16.5096 63.2786 14.8538 62.0299 14.2428 60.2933C13.9601 60.401 13.6829 60.5226 13.4087 60.6555C15.7639 62.5826 18.3938 64.186 21.2312 65.3978H25.284C26.4252 65.3978 27.3589 64.4641 27.3589 63.3227V62.5045C26.8319 61.8882 26.0725 61.4328 24.9753 61.3432Z" fill="#4FABF7"/>
<path d="M16.0176 62.581C16.018 62.5709 16.019 62.5613 16.0196 62.5514C15.2043 62.018 14.5715 61.2275 14.2429 60.2933C13.9603 60.401 13.6831 60.5226 13.4088 60.6555C14.2445 61.3394 15.1156 61.9816 16.0176 62.581Z" fill="#1E9EF4"/>
<path d="M18.4523 63.3619C20.4305 63.3619 22.1166 62.0912 22.7397 60.3234C22.3002 60.1517 21.8485 60.0103 21.3762 59.9013C21.3568 59.8818 21.3388 59.8607 21.3206 59.8397C20.8993 61.0172 19.7729 61.8622 18.4525 61.8622C17.1321 61.8622 16.0057 61.0172 15.5844 59.8399C15.5662 59.8607 15.5481 59.882 15.5286 59.9013C15.0563 60.0103 14.6046 60.1517 14.1652 60.3234C14.7881 62.0913 16.4741 63.3619 18.4523 63.3619Z" fill="#73C3F9"/>
<path d="M59.5851 5.27029H56.9373C56.2659 5.27029 55.7218 4.72616 55.7218 4.05479C55.7218 3.38343 56.2661 2.83929 56.9373 2.83929H59.5851C60.2564 2.83929 60.8006 3.38343 60.8006 4.05479C60.8006 4.72616 60.2564 5.27029 59.5851 5.27029Z" fill="#4B6BB2"/>
<path d="M50.6162 5.27029H23.2261C22.5548 5.27029 22.0106 4.72616 22.0106 4.05479C22.0106 3.38343 22.5549 2.83929 23.2261 2.83929H50.6162C51.2875 2.83929 51.8317 3.38343 51.8317 4.05479C51.8317 4.72616 51.2875 5.27029 50.6162 5.27029Z" fill="#4B6BB2"/>
<path d="M46.1127 23.1234H36.4581C35.7867 23.1234 35.2424 22.5793 35.2424 21.9079C35.2424 21.2366 35.7867 20.6924 36.4581 20.6924H46.1127C46.7841 20.6924 47.3282 21.2366 47.3282 21.9079C47.3284 22.5793 46.7841 23.1234 46.1127 23.1234Z" fill="#FF7186"/>
<path d="M56.8272 27.7083H36.4583C35.7869 27.7083 35.2427 27.1642 35.2427 26.4928C35.2427 25.8214 35.7869 25.2773 36.4583 25.2773H56.8274C57.4987 25.2773 58.0429 25.8214 58.0429 26.4928C58.0429 27.1642 57.4986 27.7083 56.8272 27.7083Z" fill="#BEC8F7"/>
<path d="M56.8272 32.293H36.4583C35.7869 32.293 35.2427 31.7488 35.2427 31.0773C35.2427 30.406 35.7869 29.8618 36.4583 29.8618H56.8274C57.4987 29.8618 58.0429 30.406 58.0429 31.0773C58.0429 31.7487 57.4986 32.293 56.8272 32.293Z" fill="#BEC8F7"/>
<path d="M56.8272 36.8775H36.4583C35.7869 36.8775 35.2427 36.3334 35.2427 35.662C35.2427 34.9907 35.7869 34.4465 36.4583 34.4465H56.8274C57.4987 34.4465 58.0429 34.9907 58.0429 35.662C58.0429 36.3334 57.4986 36.8775 56.8272 36.8775Z" fill="#BEC8F7"/>
<path d="M46.1127 49.5689H36.4581C35.7867 49.5689 35.2424 49.0248 35.2424 48.3534C35.2424 47.6821 35.7867 47.1379 36.4581 47.1379H46.1127C46.7841 47.1379 47.3282 47.6821 47.3282 48.3534C47.3282 49.0248 46.7841 49.5689 46.1127 49.5689Z" fill="#FF7186"/>
<path d="M41.4875 21.9079C41.4875 21.2366 42.0318 20.6924 42.703 20.6924H36.4581C35.7867 20.6924 35.2424 21.2366 35.2424 21.9079C35.2424 22.5793 35.7867 23.1234 36.4581 23.1234H42.703C42.0318 23.1234 41.4875 22.5793 41.4875 21.9079Z" fill="#FF4155"/>
<path d="M41.4875 48.3534C41.4875 47.6821 42.0318 47.1379 42.703 47.1379H36.4581C35.7867 47.1379 35.2424 47.6821 35.2424 48.3534C35.2424 49.0248 35.7867 49.5689 36.4581 49.5689H42.703C42.0318 49.5689 41.4875 49.0248 41.4875 48.3534Z" fill="#FF4155"/>
<path d="M56.8272 54.1536H36.4583C35.7869 54.1536 35.2427 53.6095 35.2427 52.938C35.2427 52.2666 35.7869 51.7225 36.4583 51.7225H56.8274C57.4987 51.7225 58.0429 52.2666 58.0429 52.938C58.0429 53.6095 57.4986 54.1536 56.8272 54.1536Z" fill="#BEC8F7"/>
<path d="M58.0358 57.3936C57.9713 56.7829 57.4549 56.3072 56.8272 56.3072H36.4583C35.7869 56.3072 35.2427 56.8513 35.2427 57.5227C35.2427 58.1941 35.7869 58.7382 36.4583 58.7382H56.7335C57.1798 58.3023 57.6149 57.8546 58.0358 57.3936Z" fill="#BEC8F7"/>
<path d="M36.4583 60.8918C35.7869 60.8918 35.2427 61.436 35.2427 62.1075C35.2427 62.779 35.7869 63.323 36.4583 63.323H50.8157C52.0311 62.588 53.1935 61.7747 54.2981 60.8918H36.4583Z" fill="#BEC8F7"/>
<path d="M25.2841 40.168H11.7102C9.89589 40.168 8.41968 38.6919 8.41968 36.8774V20.8828C8.41968 19.0683 9.89589 17.5922 11.7102 17.5922H25.2841C27.0984 17.5922 28.5745 19.0683 28.5745 20.8828V36.8774C28.5746 38.6919 27.0986 40.168 25.2841 40.168ZM11.7102 20.0234C11.2443 20.0234 10.8508 20.417 10.8508 20.8828V36.8774C10.8508 37.3432 11.2443 37.7368 11.7102 37.7368H25.2841C25.7579 37.7368 26.1435 37.3513 26.1435 36.8774V20.8828C26.1435 20.4089 25.7581 20.0234 25.2841 20.0234H11.7102Z" fill="#FFE98D"/>
<path d="M11.7102 37.7368C11.2443 37.7368 10.8508 37.3432 10.8508 36.8774V20.8828C10.8508 20.417 11.2443 20.0234 11.7102 20.0234H18.4109C18.4066 19.9926 18.3934 19.9628 18.3713 19.9386C17.4465 18.9226 18.1551 17.9358 18.3861 17.6649C18.4041 17.6436 18.4147 17.6184 18.419 17.5921H11.7102C9.89589 17.5921 8.41968 19.0682 8.41968 20.8827V36.8773C8.41968 38.6918 9.89589 40.1678 11.7102 40.1678H17.8693C16.6558 39.1555 17.667 37.9827 17.9045 37.7367L11.7102 37.7368Z" fill="#FFDD40"/>
<path d="M25.2841 44.0377H11.7102C9.89589 44.0377 8.41968 45.5138 8.41968 47.3283V55.5734C9.1779 56.5366 9.99045 57.4547 10.8508 58.3257V47.3283C10.8508 46.8544 11.2364 46.4689 11.7102 46.4689H25.2841C25.7579 46.4689 26.1435 46.8544 26.1435 47.3283V63.3229C26.1435 63.7968 25.7579 64.1823 25.2841 64.1823H18.6976C20.5582 65.1756 22.5264 65.9932 24.5806 66.6135H25.2841C27.0984 66.6135 28.5746 65.1374 28.5746 63.3229V47.3283C28.5746 45.5138 27.0986 44.0377 25.2841 44.0377Z" fill="#FFE98D"/>
<path d="M18.4972 44.0377H11.7102C9.89589 44.0377 8.41968 45.5138 8.41968 47.3283V55.5734C9.1779 56.5366 9.99045 57.4547 10.8508 58.3257V47.3283C10.8508 46.8544 11.2364 46.4689 11.7102 46.4689H18.4971C17.172 45.2871 18.4972 44.0377 18.4972 44.0377Z" fill="#FFDD40"/>
<path d="M31.7609 32.1592C31.0732 31.6818 30.5596 31.0162 30.2712 30.2277C30.2111 30.0634 30.075 29.9369 29.9045 29.898C28.2321 29.5165 26.4859 29.5165 24.8135 29.898C24.643 29.9369 24.5069 30.0634 24.4468 30.2277C24.1584 31.0162 23.6448 31.6818 22.9571 32.1592C22.8167 32.2567 22.7318 32.4155 22.7318 32.5863V34.6152C22.7318 36.2262 23.2106 37.7719 24.1164 39.0851C24.8912 40.2085 25.9291 41.0906 27.1442 41.6642C27.2797 41.7282 27.4382 41.7282 27.5735 41.6642C28.7881 41.0907 29.8259 40.209 30.6007 39.0859C31.507 37.7725 31.9859 36.2265 31.9859 34.6152V32.5863C31.9862 32.4155 31.9013 32.2567 31.7609 32.1592Z" fill="#38C674"/>
<path d="M28.2824 36.5599L25.8662 34.2452C23.6495 33.5887 24.0181 31.0774 24.0181 31.0774L24.0174 31.0771C23.7379 31.4989 23.3809 31.8649 22.9571 32.1591C22.8167 32.2566 22.7318 32.4154 22.7318 32.5862V34.6151C22.7318 36.2261 23.2106 37.7718 24.1164 39.085C24.8912 40.2083 25.9291 41.0905 27.1442 41.6641C27.2797 41.7281 27.4382 41.7281 27.5736 41.6641C28.7882 41.0906 29.826 40.2089 30.6008 39.0858C28.1486 39.0859 28.2824 36.5599 28.2824 36.5599Z" fill="#24B55E"/>
<path d="M26.3406 37.0913L25.1952 35.9459C24.8058 35.5565 24.8056 34.925 25.1952 34.5356C25.5846 34.1461 26.2161 34.1462 26.6055 34.5355L27.0457 34.9758L28.1125 33.9089C28.5021 33.5196 29.1335 33.5195 29.5229 33.909C29.9124 34.2984 29.9124 34.9299 29.5229 35.3193L27.7509 37.0913C27.3612 37.4809 26.73 37.4806 26.3406 37.0913Z" fill="#E9EFFF"/>
<path d="M31.7609 58.6047C31.0732 58.1273 30.5598 57.4617 30.2712 56.6732C30.2111 56.5089 30.075 56.3824 29.9045 56.3435C28.2321 55.962 26.4859 55.962 24.8135 56.3435C24.643 56.3824 24.5068 56.5089 24.4468 56.6732C24.1583 57.4617 23.6448 58.1273 22.957 58.6047C22.8167 58.7022 22.7319 58.861 22.7319 59.0318V61.0607C22.7319 62.6717 23.2107 64.2174 24.1165 65.5306C24.4386 65.9977 24.8086 66.4202 25.2155 66.799C26.3088 67.1048 27.4257 67.3539 28.5623 67.5451C29.3549 67.0131 30.0463 66.3353 30.6009 65.5314C31.5073 64.218 31.9862 62.672 31.9862 61.0607V59.0318C31.9862 58.861 31.9013 58.7022 31.7609 58.6047Z" fill="#38C674"/>
<path d="M28.2824 63.0054L25.8662 60.6907C23.6495 60.0342 24.0181 57.5229 24.0181 57.5229L24.0174 57.5226C23.7379 57.9444 23.3809 58.3104 22.957 58.6046C22.8167 58.7021 22.7319 58.8609 22.7319 59.0317V61.0606C22.7319 62.6716 23.2107 64.2173 24.1165 65.5305C24.4386 65.9976 24.8086 66.4201 25.2155 66.7989C26.3088 67.1047 27.4257 67.3538 28.5623 67.545C29.3549 67.013 30.0463 66.3352 30.6009 65.5313C28.1484 65.5314 28.2824 63.0054 28.2824 63.0054Z" fill="#24B55E"/>
<path d="M26.3404 63.5368L25.1951 62.3914C24.8057 62.002 24.8055 61.3705 25.1951 60.9811C25.5845 60.5916 26.216 60.5917 26.6054 60.981L27.0455 61.4212L28.1124 60.3544C28.502 59.9651 29.1333 59.965 29.5228 60.3545C29.9123 60.7439 29.9123 61.3754 29.5228 61.7648L27.7508 63.5368C27.3612 63.9264 26.73 63.9262 26.3404 63.5368Z" fill="#E9EFFF"/>
<path d="M15.5843 59.8398C15.5661 59.8607 15.548 59.8819 15.5286 59.9013C15.0563 60.0102 14.6046 60.1517 14.1652 60.3234C14.5061 61.2907 15.1667 62.1072 16.0179 62.65C15.9916 61.6681 17.2152 61.5988 17.2152 61.5988L17.2143 61.5967C16.459 61.2589 15.8648 60.6241 15.5843 59.8398Z" fill="#4FABF7"/>
</svg>
