<svg width="68" height="68" viewBox="0 0 68 68" fill="none" xmlns="http://www.w3.org/2000/svg">
<g clip-path="url(#clip0_76_445)">
<path d="M68 34C68 39.0292 66.9079 43.8032 64.9484 48.0984C61.5985 55.4409 55.7128 61.3817 48.4117 64.8042C47.0893 65.4231 45.7197 65.9601 44.3096 66.4068C42.7236 66.9136 41.0873 67.3033 39.408 67.571C39.4012 67.5725 39.3929 67.5741 39.3857 67.5741C38.5618 67.7058 37.7302 67.807 36.8882 67.8781C36.7086 67.8931 36.5286 67.9071 36.3481 67.9196C36.0939 67.9362 35.8386 67.9512 35.5818 67.9626C35.0573 67.9875 34.5302 68 34 68C33.4558 68 32.9162 67.9875 32.3793 67.9611C32.1365 67.9502 31.8932 67.9362 31.6504 67.918C31.4688 67.9056 31.2882 67.8931 31.1077 67.8781C30.246 67.806 29.3925 67.7001 28.5505 67.5642C28.1479 67.4988 27.7469 67.4283 27.35 67.3489C25.6276 67.0075 23.954 66.5375 22.3374 65.9461C21.4005 65.6047 20.4832 65.2229 19.5867 64.8026C19.2817 64.6595 18.9777 64.5111 18.6762 64.357C17.9022 63.9658 17.1458 63.5451 16.4075 63.0968C12.709 60.8572 9.47275 57.9317 6.87201 54.4972C5.31094 52.435 3.98022 50.1896 2.91721 47.7969C1.04227 43.5812 0 38.9125 0 34C0 15.2221 15.2221 0 34 0C52.7779 0 68 15.2221 68 34Z" fill="#FFE152"/>
<path d="M27.3501 44.1223V67.3489C25.6277 67.0075 23.954 66.5375 22.3374 65.946C21.4005 65.6047 20.4832 65.2228 19.5868 64.8026C19.2817 64.6594 18.9777 64.511 18.6763 64.357C17.9022 63.9658 17.1458 63.545 16.4076 63.0968C12.709 60.8571 9.47278 57.9316 6.87204 54.4972C5.31097 52.435 3.98026 50.1896 2.91724 47.7969V44.1223C2.91724 39.8593 5.81213 36.2718 9.74359 35.2212C9.88782 35.1823 10.032 35.146 10.1794 35.1159C10.569 35.0298 10.97 34.9712 11.3783 34.938C11.6268 34.9188 11.8779 34.9073 12.1316 34.9073H18.1336C18.8039 34.9073 19.4576 34.9784 20.0879 35.1159C20.1237 35.1227 20.16 35.131 20.1958 35.1393C20.3017 35.1631 20.4085 35.1891 20.5123 35.2171C20.5154 35.2186 20.518 35.2186 20.5206 35.2197C21.5587 35.4972 22.5232 35.9512 23.3823 36.5478C25.7802 38.2116 27.3501 40.983 27.3501 44.1223Z" fill="#2BA1CF"/>
<path d="M27.35 44.1223V67.3489C25.6276 67.0075 23.9539 66.5375 22.3373 65.946C21.4004 65.6047 20.4832 65.2228 19.5867 64.8026C19.2816 64.6594 18.9776 64.511 18.6762 64.357C17.9021 63.9658 17.1457 63.545 16.4075 63.0968C12.709 60.8571 9.47269 57.9316 6.87195 54.4972V44.1223C6.87195 39.8593 9.76685 36.2718 13.6983 35.2212C13.843 35.1823 13.9873 35.146 14.1341 35.1159C14.5242 35.0298 14.9253 34.9712 15.333 34.938C15.5815 34.9188 15.8326 34.9073 16.0869 34.9073H18.1335C18.8038 34.9073 19.4575 34.9784 20.0878 35.1159C20.1236 35.1227 20.1599 35.131 20.1957 35.1393C20.3016 35.1631 20.4084 35.1891 20.5122 35.2171C20.5153 35.2186 20.5179 35.2186 20.5205 35.2197C21.5586 35.4972 22.5231 35.9512 23.3822 36.5478C25.7801 38.2116 27.35 40.983 27.35 44.1223Z" fill="#66BAED"/>
<path d="M20.5434 35.1154L20.5216 35.2197L17.7647 48.0418C17.5001 49.274 16.4158 50.1673 15.1562 50.1684C15.1484 50.1684 15.1411 50.1684 15.1339 50.1684C15.1256 50.1684 15.1178 50.1684 15.1095 50.1684C13.8493 50.1673 12.7656 49.274 12.501 48.0418L9.74408 35.2207L9.72229 35.1154H20.5434Z" fill="#F2F0EC"/>
<path d="M15.1328 38.6801L10.984 40.9856L9.72229 35.1154L12.3002 33.5974" fill="#D8D5D0"/>
<path d="M15.1328 38.6801L19.2816 40.9856L20.5434 35.1154L17.9655 33.5974" fill="#D8D5D0"/>
<path d="M2.74597 32.6864V18.7888C2.74597 17.3766 2.98151 15.993 3.44635 14.6763C5.18588 9.72693 9.88257 6.40039 15.1333 6.40039C15.7839 6.40039 16.4329 6.45071 17.0638 6.55032C19.9483 7.00116 22.5952 8.47351 24.5143 10.6966C26.4535 12.9435 27.5217 15.8171 27.5217 18.7888V32.6864" fill="#CC7A3B"/>
<path d="M7.84164 19.3315C7.84164 24.2471 10.7205 29.9341 12.3012 32.6864H2.74548V18.7888C2.74548 17.3771 2.98154 15.9935 3.44586 14.6763C5.17502 9.75546 9.82864 6.43878 15.0431 6.40143C11.2346 6.49637 7.84164 12.6068 7.84164 19.3315Z" fill="#A35418"/>
<path d="M18.4214 31.3577V35.3929C18.4214 36.87 17.4477 38.1187 16.106 38.5332C15.7989 38.6287 15.4716 38.6801 15.1333 38.6801C13.3175 38.6801 11.8462 37.2087 11.8462 35.3929V31.3577H18.4214Z" fill="#EAB599"/>
<path d="M18.4214 35.1372V35.393C18.4214 36.87 17.4477 38.1187 16.106 38.5333C14.8957 38.1613 13.9857 37.1086 13.8176 35.821C14.0371 35.8345 14.2581 35.8412 14.4796 35.8412C15.1017 35.8412 15.7118 35.7919 16.3053 35.6944C17.0373 35.5766 17.7449 35.3883 18.4214 35.1372Z" fill="#F6CAAE"/>
<path d="M6.11508 24.7451C6.11508 26.2673 5.0033 27.5295 3.54703 27.7635C3.38828 27.7895 3.22433 27.8029 3.05728 27.8029C1.36859 27.8029 0 26.4344 0 24.7451C0 23.0565 1.36859 21.6879 3.05728 21.6879C3.22433 21.6879 3.38828 21.7014 3.54703 21.7273C5.0033 21.9613 6.11508 23.223 6.11508 24.7451Z" fill="#F6CAAE"/>
<path d="M6.11511 24.7451C6.11511 26.2673 5.00333 27.5295 3.54706 27.7635C3.28299 26.8022 3.14136 25.79 3.14136 24.7451C3.14136 23.7008 3.28299 22.6886 3.54706 21.7273C5.00333 21.9613 6.11511 23.223 6.11511 24.7451Z" fill="#EAB599"/>
<path d="M4.15042 24.7452C4.15042 25.3491 3.66119 25.8383 3.05731 25.8383C2.45395 25.8383 1.96472 25.3491 1.96472 24.7452C1.96472 24.1418 2.45395 23.6526 3.05731 23.6526C3.66119 23.6526 4.15042 24.1418 4.15042 24.7452Z" fill="#EAB599"/>
<path d="M22.9843 20.8412V31.351C21.36 32.9017 19.277 33.9756 16.9595 34.3491C16.9414 34.3522 16.9217 34.3553 16.9035 34.3585C16.3276 34.4503 15.7367 34.4959 15.1334 34.4959C8.85123 34.4959 3.75818 29.4029 3.75818 23.1208V18.7888C3.75818 18.2342 3.79761 17.6884 3.87439 17.1551C6.58096 19.1016 10.4616 18.9091 12.9342 16.5725C13.7528 15.799 14.322 14.8781 14.6436 13.9012C14.8226 15.6117 15.6049 17.2765 16.9917 18.5875C18.6425 20.146 20.8235 20.8977 22.9843 20.8412Z" fill="#EAB599"/>
<path d="M22.9843 20.8412V31.351C21.36 32.9017 19.277 33.9756 16.9595 34.3491C16.9414 34.3522 16.9217 34.3553 16.9035 34.3585C11.4623 33.5081 7.30054 28.7995 7.30054 23.1208V18.7888C7.30054 18.6736 7.30261 18.559 7.30676 18.4448C9.31244 18.6503 11.3959 18.0267 12.9342 16.572C13.7528 15.799 14.322 14.8776 14.6436 13.9012C14.8226 15.6117 15.6049 17.2765 16.9917 18.5875C18.6425 20.146 20.8235 20.8977 22.9843 20.8412Z" fill="#F6CAAE"/>
<path d="M21.2433 22.16C21.2433 21.1162 20.3971 20.2705 19.3538 20.2705C18.3105 20.2705 17.4644 21.1162 17.4644 22.16" fill="#EAB599"/>
<path d="M12.8044 22.16C12.8044 21.1162 11.9583 20.2705 10.9149 20.2705C9.87164 20.2705 9.026 21.1162 9.026 22.16" fill="#EAB599"/>
<path d="M12.2058 22.9641C12.2058 23.6769 11.6278 24.2549 10.915 24.2549C10.2022 24.2549 9.62476 23.6769 9.62476 22.9641C9.62476 22.2513 10.2022 21.6738 10.915 21.6738C11.6278 21.6738 12.2058 22.2513 12.2058 22.9641Z" fill="#3D4159"/>
<path d="M20.644 22.9641C20.644 23.6769 20.0666 24.2549 19.3537 24.2549C18.6409 24.2549 18.0635 23.6769 18.0635 22.9641C18.0635 22.2513 18.6409 21.6738 19.3537 21.6738C20.0666 21.6738 20.644 22.2513 20.644 22.9641Z" fill="#3D4159"/>
<path d="M16.4252 26.2133H13.8441C13.5365 26.2133 13.2875 25.9638 13.2875 25.6566C13.2875 25.3495 13.5365 25.1 13.8441 25.1H16.4252C16.7323 25.1 16.9813 25.3495 16.9813 25.6566C16.9813 25.9638 16.7323 26.2133 16.4252 26.2133Z" fill="#EAB599"/>
<path d="M15.1344 29.7355C14.1819 29.7355 13.2294 29.4969 12.3609 29.019C12.116 28.8847 12.0268 28.577 12.1612 28.3322C12.2961 28.0873 12.6037 27.998 12.8486 28.1324C14.2799 28.9194 15.9889 28.9194 17.4202 28.1324C17.6651 27.9975 17.9728 28.0873 18.1076 28.3322C18.242 28.577 18.1528 28.8847 17.9079 29.019C17.0394 29.4969 16.0869 29.7355 15.1344 29.7355Z" fill="#EAB599"/>
<path d="M11.9427 22.7364C11.9427 23.042 11.6948 23.2894 11.3897 23.2894C11.0841 23.2894 10.8367 23.042 10.8367 22.7364C10.8367 22.4308 11.0841 22.1833 11.3897 22.1833C11.6948 22.1833 11.9427 22.4308 11.9427 22.7364Z" fill="white"/>
<path d="M20.4443 22.7364C20.4443 23.042 20.1968 23.2894 19.8918 23.2894C19.5862 23.2894 19.3387 23.042 19.3387 22.7364C19.3387 22.4308 19.5862 22.1833 19.8918 22.1833C20.1968 22.1833 20.4443 22.4308 20.4443 22.7364Z" fill="white"/>
<path d="M22.8769 26.1075C22.8769 26.8898 22.2424 27.5243 21.4596 27.5243C20.6772 27.5243 20.0427 26.8898 20.0427 26.1075C20.0427 25.3246 20.6772 24.6901 21.4596 24.6901C22.2424 24.6901 22.8769 25.3246 22.8769 26.1075Z" fill="#EAB599"/>
<path d="M10.225 26.1075C10.225 26.8898 9.59106 27.5243 8.8082 27.5243C8.02585 27.5243 7.39136 26.8898 7.39136 26.1075C7.39136 25.3246 8.02585 24.6901 8.8082 24.6901C9.59106 24.6901 10.225 25.3246 10.225 26.1075Z" fill="#EAB599"/>
<path d="M64.9484 43.8421V48.0983C61.5985 55.4409 55.7127 61.3817 48.4117 64.8042C47.0893 65.4231 45.7196 65.9601 44.3095 66.4067C42.7236 66.9136 41.0873 67.3032 39.4079 67.5709C39.4012 67.5725 39.3929 67.574 39.3856 67.574V43.8421C39.3856 38.7838 43.2813 34.6339 48.2384 34.2345C48.4994 34.2122 48.7614 34.2028 49.0265 34.2028H55.305C56.0474 34.2028 56.7701 34.2843 57.4642 34.4441C61.7495 35.4236 64.9484 39.2611 64.9484 43.8421Z" fill="#BFD5DE"/>
<path d="M64.9484 43.8421V48.0983C61.5985 55.4409 55.7128 61.3817 48.4117 64.8042C47.0893 65.4231 45.7197 65.9601 44.3096 66.4067V43.8421C44.3096 38.5187 48.627 34.2028 53.952 34.2028H55.306C60.6325 34.2028 64.9484 38.5187 64.9484 43.8421Z" fill="#DDE8ED"/>
<path d="M42.7303 23.5695C42.7303 25.1622 41.5672 26.4826 40.044 26.7274C39.8775 26.7544 39.7063 26.7684 39.5314 26.7684C37.7644 26.7684 36.3325 25.3365 36.3325 23.5695C36.3325 21.8025 37.7644 20.3706 39.5314 20.3706C39.7063 20.3706 39.8775 20.3846 40.044 20.4116C41.5672 20.657 42.7303 21.9773 42.7303 23.5695Z" fill="#D3A489"/>
<path d="M54.7551 37.6804L52.1668 41.8318L49.5785 37.6804" fill="#F74F4F"/>
<path d="M55.649 53.5587L52.1668 57.9529L48.6841 53.5587L52.1673 40.7516L55.649 53.5587Z" fill="#F74F4F"/>
<path d="M42.7303 23.5695C42.7303 25.1623 41.5672 26.4826 40.044 26.7275C39.7675 25.7215 39.6196 24.6627 39.6196 23.5695C39.6196 22.477 39.7675 21.4181 40.044 20.4116C41.5672 20.657 42.7303 21.9774 42.7303 23.5695Z" fill="#BF8E75"/>
<path d="M40.6749 23.5695C40.6749 24.2009 40.1628 24.713 39.5315 24.713C38.9001 24.713 38.3885 24.2009 38.3885 23.5695C38.3885 22.9382 38.9001 22.4266 39.5315 22.4266C40.1628 22.4266 40.6749 22.9382 40.6749 23.5695Z" fill="#BF8E75"/>
<path d="M52.1657 38.1488L47.8255 40.5612L46.5051 34.4192L49.2018 32.8306" fill="#BFD5DE"/>
<path d="M52.1658 38.1488L56.5066 40.5612L57.8269 34.4192L55.1297 32.8306" fill="#BFD5DE"/>
<path d="M61.6022 23.5695C61.6022 25.1622 62.7653 26.4826 64.2885 26.7274C64.455 26.7544 64.6263 26.7684 64.8011 26.7684C66.5681 26.7684 68 25.3365 68 23.5695C68 21.8025 66.5681 20.3706 64.8011 20.3706C64.6263 20.3706 64.455 20.3846 64.2885 20.4116C62.7653 20.657 61.6022 21.9773 61.6022 23.5695Z" fill="#D3A489"/>
<path d="M61.6022 23.5695C61.6022 25.1623 62.7653 26.4826 64.2885 26.7275C64.5656 25.7215 64.7129 24.6627 64.7129 23.5695C64.7129 22.477 64.5656 21.4181 64.2885 20.4116C62.7653 20.657 61.6022 21.9774 61.6022 23.5695Z" fill="#BF8E75"/>
<path d="M65.9446 23.5695C65.9446 24.2009 65.4325 24.713 64.8011 24.713C64.1698 24.713 63.6577 24.2009 63.6577 23.5695C63.6577 22.9382 64.1698 22.4266 64.8011 22.4266C65.4325 22.4266 65.9446 22.9382 65.9446 23.5695Z" fill="#BF8E75"/>
<path d="M64.0686 21.8694C64.0686 27.792 59.7418 32.7056 54.0765 33.6176C53.4555 33.7198 52.8174 33.7712 52.1663 33.7712C45.5926 33.7712 40.2645 28.4431 40.2645 21.8694C40.2645 18.7592 41.3447 14.09 43.2979 11.9697C45.4727 9.60865 48.7028 9.96714 52.1663 9.96714C52.8174 9.96714 53.455 10.019 54.0765 10.1212C59.7418 11.0333 64.0686 15.9463 64.0686 21.8694Z" fill="#BF8E75"/>
<path d="M55.6065 30.4882V34.7097C55.6065 36.2552 54.5876 37.5615 53.1837 37.9952C52.8625 38.0948 52.5201 38.1488 52.1658 38.1488C50.2665 38.1488 48.7267 36.609 48.7267 34.7097V30.4882H55.6065Z" fill="#BF8E75"/>
<path d="M55.6064 34.442V34.7097C55.6064 36.2552 54.5874 37.5616 53.1836 37.9953C51.9172 37.6062 50.9652 36.5048 50.7893 35.1574C51.0191 35.1714 51.25 35.1787 51.4824 35.1787C52.133 35.1787 52.7711 35.1268 53.3926 35.0251C54.1584 34.9017 54.8982 34.705 55.6064 34.442Z" fill="#D3A489"/>
<path d="M64.0686 21.8694C64.0686 27.7921 59.7418 32.7056 54.0765 33.6176C48.4117 32.7056 44.085 27.7921 44.085 21.8694C44.085 18.2223 45.7254 14.958 48.3095 12.7744C49.9209 11.412 51.9001 10.4714 54.0765 10.1207C59.3579 10.971 63.4777 15.3004 64.0099 20.6824C64.0489 21.0731 64.0686 21.4695 64.0686 21.8694Z" fill="#D3A489"/>
<path d="M52.1667 27.7314C51.1696 27.7314 50.1735 27.4818 49.2651 26.9822C49.0083 26.8416 48.9149 26.5195 49.056 26.2632C49.1966 26.0069 49.5188 25.9135 49.7751 26.0546C51.2723 26.8774 53.0606 26.8774 54.5584 26.0546C54.8142 25.9135 55.1363 26.0069 55.2769 26.2632C55.418 26.5195 55.3247 26.8416 55.0684 26.9822C54.1599 27.4818 53.1628 27.7314 52.1667 27.7314Z" fill="#BF8E75"/>
<path d="M49.632 21.1768C49.632 21.9224 49.0276 22.5268 48.2816 22.5268C47.536 22.5268 46.9316 21.9224 46.9316 21.1768C46.9316 20.4308 47.536 19.8264 48.2816 19.8264C49.0276 19.8264 49.632 20.4308 49.632 21.1768Z" fill="#3D4159"/>
<path d="M57.4015 21.1768C57.4015 21.9224 56.7971 22.5268 56.0516 22.5268C55.3056 22.5268 54.7012 21.9224 54.7012 21.1768C54.7012 20.4308 55.3056 19.8264 56.0516 19.8264C56.7971 19.8264 57.4015 20.4308 57.4015 21.1768Z" fill="#3D4159"/>
<path d="M49.3564 20.9382C49.3564 21.2578 49.0975 21.5172 48.7779 21.5172C48.4583 21.5172 48.1995 21.2578 48.1995 20.9382C48.1995 20.6191 48.4583 20.3597 48.7779 20.3597C49.0975 20.3597 49.3564 20.6191 49.3564 20.9382Z" fill="white"/>
<path d="M57.1923 20.9382C57.1923 21.2578 56.9334 21.5172 56.6139 21.5172C56.2943 21.5172 56.0354 21.2578 56.0354 20.9382C56.0354 20.6191 56.2943 20.3597 56.6139 20.3597C56.9334 20.3597 57.1923 20.6191 57.1923 20.9382Z" fill="white"/>
<path d="M53.5167 24.576H50.8164C50.4947 24.576 50.2338 24.3151 50.2338 23.9934C50.2338 23.6718 50.4947 23.4113 50.8164 23.4113H53.5167C53.8384 23.4113 54.0993 23.6718 54.0993 23.9934C54.0988 24.3151 53.8384 24.576 53.5167 24.576Z" fill="#BF8E75"/>
<path d="M56.0852 43.5262H61.2737V45.1142H56.0852V43.5262Z" fill="#BFD5DE"/>
<path d="M51.47 6.5675C55.0756 6.82482 57.9705 9.73736 58.1537 13.4037L58.1879 14.0922H60.2621L61.379 21.5203L64.0846 20.683L63.7214 13.4042C63.5294 9.55266 60.344 6.53429 56.4893 6.54882L51.47 6.5675Z" fill="#2A2F4F"/>
<path d="M63.4922 3.69434C66.3633 6.56537 66.3633 11.2206 63.4922 14.0916C60.6212 16.9626 55.966 16.9626 53.095 14.0916L63.4922 3.69434Z" fill="#3D4159"/>
<path d="M53.0949 14.0916H44.0719L42.9544 21.5203L40.2489 20.6829L40.6115 13.4037C40.8035 9.55315 43.9889 6.53374 47.8441 6.54827L60.8758 6.59756L62.5988 9.69842" fill="#3D4159"/>
<path d="M52.863 6.5675C49.2574 6.82482 46.3625 9.73736 46.1793 13.4037L46.1451 14.0922H44.0714L42.9539 21.5203L40.2484 20.683L40.6116 13.4042C40.8035 9.55266 43.989 6.53429 47.8436 6.54882L52.863 6.5675Z" fill="#2A2F4F"/>
<path d="M48.4117 62.2548V64.8042C44.0361 66.854 39.1526 68 33.9999 68C28.8472 68 23.9622 66.854 19.5867 64.8026V62.2548C19.5867 57.224 23.0019 52.9927 27.641 51.7523C27.8107 51.7066 27.9814 51.6646 28.1546 51.6272C28.6153 51.5271 29.0885 51.4581 29.5689 51.4192C29.863 51.3953 30.1588 51.3829 30.4586 51.3829H37.5387C38.3309 51.3829 39.1013 51.4664 39.8452 51.6272C39.8883 51.6355 39.9314 51.6454 39.9729 51.6552C40.0979 51.6843 40.2224 51.7149 40.3459 51.7481C40.3506 51.7491 40.3516 51.7491 40.3557 51.7507C41.5801 52.0781 42.7194 52.614 43.731 53.3175C46.5606 55.2801 48.4117 58.5506 48.4117 62.2548Z" fill="#3D4159"/>
<path d="M40.3822 51.6272L40.3558 51.7507L36.8881 67.8781C36.7086 67.8931 36.5286 67.9071 36.3481 67.9196C36.0938 67.9362 35.8386 67.9512 35.5818 67.9626C35.0573 67.9875 34.5302 68 34 68C33.4557 68 32.9162 67.9875 32.3792 67.9611C32.1364 67.9502 31.8931 67.9362 31.6503 67.918C31.4688 67.9055 31.2882 67.8931 31.1077 67.8781L27.6411 51.7522L27.6151 51.6272H40.3822Z" fill="#66BAED"/>
<path d="M36.9177 55.306L33.9989 59.9866L31.0807 55.306" fill="#3D4159"/>
<path d="M36.3481 67.9196C36.0939 67.9362 35.8387 67.9512 35.5818 67.9626C35.0573 67.9875 34.5302 68 34 68C33.4558 68 32.9163 67.9875 32.3793 67.9611C32.1365 67.9502 31.8932 67.9362 31.6504 67.918L34 58.7685L36.3481 67.9196Z" fill="#3D4159"/>
<path d="M33.9984 55.8336L29.1036 58.5537L27.6146 51.6283L30.6558 49.8369" fill="#2BA1CF"/>
<path d="M33.9984 55.8336L38.8928 58.5537L40.3817 51.6283L37.3405 49.8369" fill="#2BA1CF"/>
<path d="M40.5669 60.9739H42.1197L39.4079 67.5709C38.1535 67.7722 36.8767 67.904 35.5818 67.9626L40.3459 51.7481L40.3822 51.6272L43.7311 52.7208L40.5669 60.9739Z" fill="#2A2F4F"/>
<path d="M32.3792 67.9611C31.0827 67.9014 29.8049 67.767 28.5505 67.5642L25.8413 60.9739H27.3941L24.2289 52.7208L27.5788 51.6272L27.6151 51.7481L32.3792 67.9611Z" fill="#2A2F4F"/>
<path d="M37.878 47.1951V51.9551C37.878 53.6983 36.7289 55.1711 35.146 55.6604C34.7834 55.7729 34.3974 55.8336 33.9979 55.8336C31.8558 55.8336 30.1199 54.0972 30.1199 51.9551V47.1951H37.878Z" fill="#EAB599"/>
<path d="M37.878 51.6537V51.9556C37.878 53.6983 36.7289 55.1711 35.146 55.6609C33.7178 55.2215 32.6439 53.98 32.4457 52.4604C32.7051 52.4765 32.9655 52.4843 33.227 52.4843C33.9611 52.4843 34.6807 52.4262 35.381 52.3115C36.2448 52.1725 37.0791 51.9499 37.878 51.6537Z" fill="#F6CAAE"/>
<path d="M23.3584 39.3934C23.3584 41.189 22.0463 42.6779 20.3286 42.9545C20.1408 42.9846 19.9478 43.0006 19.7512 43.0006C17.7585 43.0006 16.1434 41.3861 16.1434 39.3934C16.1434 37.4007 17.7579 35.7857 19.7512 35.7857C19.9478 35.7857 20.1408 35.8018 20.3286 35.8324C22.0463 36.1089 23.3584 37.5979 23.3584 39.3934Z" fill="#F6CAAE"/>
<path d="M23.3585 39.3934C23.3585 41.189 22.0464 42.6779 20.3287 42.9545C20.0169 41.8199 19.8503 40.6256 19.8503 39.3934C19.8503 38.1608 20.0169 36.967 20.3287 35.8324C22.0464 36.1089 23.3585 37.5979 23.3585 39.3934Z" fill="#EAB599"/>
<path d="M21.0403 39.3935C21.0403 40.1053 20.4629 40.6827 19.7511 40.6827C19.0388 40.6827 18.4619 40.1053 18.4619 39.3935C18.4619 38.6812 19.0388 38.1042 19.7511 38.1042C20.4629 38.1042 21.0403 38.6812 21.0403 39.3935Z" fill="#EAB599"/>
<path d="M44.639 39.3934C44.639 41.189 45.9511 42.6779 47.6688 42.9545C47.8561 42.9846 48.0496 43.0006 48.2462 43.0006C50.239 43.0006 51.854 41.3861 51.854 39.3934C51.854 37.4007 50.2395 35.7857 48.2462 35.7857C48.0496 35.7857 47.8561 35.8018 47.6688 35.8324C45.9511 36.1089 44.639 37.5979 44.639 39.3934Z" fill="#F6CAAE"/>
<path d="M44.639 39.3934C44.639 41.189 45.9511 42.6779 47.6688 42.9545C47.9806 41.8199 48.1472 40.6256 48.1472 39.3934C48.1472 38.1608 47.9806 36.967 47.6688 35.8324C45.9511 36.1089 44.639 37.5979 44.639 39.3934Z" fill="#EAB599"/>
<path d="M47.4203 32.3658V37.4764C47.4203 44.1555 42.541 49.6957 36.1525 50.724C36.1312 50.7276 36.1084 50.7312 36.0871 50.7349C35.4075 50.8438 34.7102 50.8972 33.9984 50.8972C26.5863 50.8972 20.5781 44.8885 20.5781 37.477V32.3658C20.5781 30.8052 20.8443 29.3054 21.3361 27.9119C23.1716 22.6886 28.1484 18.9439 33.9984 18.9439H33.9995C34.7102 18.9439 35.4085 18.9989 36.0892 19.1063C42.5088 20.1091 47.4203 25.6644 47.4203 32.3658Z" fill="#EAB599"/>
<path d="M49.5355 39.3935C49.5355 40.1053 48.9586 40.6827 48.2462 40.6827C47.5345 40.6827 46.957 40.1053 46.957 39.3935C46.957 38.6812 47.5345 38.1042 48.2462 38.1042C48.9586 38.1042 49.5355 38.6812 49.5355 39.3935Z" fill="#EAB599"/>
<path d="M47.4198 32.3658V37.4765C47.4198 44.155 42.541 49.6957 36.1525 50.724C36.1307 50.7276 36.1084 50.7313 36.0866 50.7349C29.6675 49.7315 24.7571 44.1768 24.7571 37.4765V32.3658C24.7571 25.6645 29.6685 20.1092 36.0892 19.1063C42.5088 20.1092 47.4198 25.6645 47.4198 32.3658Z" fill="#F6CAAE"/>
<path d="M31.1404 36.6946C31.1404 37.5356 30.4587 38.2173 29.6183 38.2173C28.7773 38.2173 28.0956 37.5356 28.0956 36.6946C28.0956 35.8542 28.7773 35.1725 29.6183 35.1725C30.4587 35.1725 31.1404 35.8542 31.1404 36.6946Z" fill="#3D4159"/>
<path d="M39.9024 36.6946C39.9024 37.5356 39.2207 38.2173 38.3797 38.2173C37.5388 38.2173 36.8571 37.5356 36.8571 36.6946C36.8571 35.8542 37.5388 35.1725 38.3797 35.1725C39.2207 35.1725 39.9024 35.8542 39.9024 36.6946Z" fill="#3D4159"/>
<path d="M30.8302 36.4265C30.8302 36.7865 30.5381 37.0786 30.1775 37.0786C29.8175 37.0786 29.5254 36.7865 29.5254 36.4265C29.5254 36.0659 29.8175 35.7738 30.1775 35.7738C30.5381 35.7738 30.8302 36.0659 30.8302 36.4265Z" fill="white"/>
<path d="M39.6664 36.4265C39.6664 36.7865 39.3743 37.0786 39.0142 37.0786C38.6537 37.0786 38.3616 36.7865 38.3616 36.4265C38.3616 36.0659 38.6537 35.7738 39.0142 35.7738C39.3743 35.7738 39.6664 36.0659 39.6664 36.4265Z" fill="white"/>
<path d="M35.5216 39.9314H32.4763C32.1136 39.9314 31.8195 39.6372 31.8195 39.2746C31.8195 38.9114 32.1136 38.6178 32.4763 38.6178H35.5216C35.8842 38.6178 36.1784 38.9114 36.1784 39.2746C36.1779 39.6372 35.8837 39.9314 35.5216 39.9314Z" fill="#EAB599"/>
<path d="M33.999 44.0865C32.8753 44.0865 31.751 43.8048 30.7269 43.2414C30.438 43.0826 30.3321 42.7195 30.4914 42.431C30.6501 42.142 31.0133 42.0367 31.3023 42.1949C32.991 43.1236 35.007 43.1236 36.6957 42.1949C36.9847 42.0362 37.3478 42.1415 37.5066 42.431C37.6659 42.7195 37.56 43.0826 37.2711 43.2414C36.2464 43.8048 35.1227 44.0865 33.999 44.0865Z" fill="#EAB599"/>
<path d="M47.4203 27.7277V32.9629H44.9223V28.8628L26.8909 25.5124L23.0757 24.8032V32.9629H20.5776V27.7272C20.5776 21.7589 25.4149 16.9216 31.3821 16.9216H36.6158C36.7579 16.9216 36.9001 16.9242 37.0422 16.9315C42.8108 17.1535 47.4203 21.9016 47.4203 27.7277Z" fill="#2A2F4F"/>
<path d="M47.4203 27.7277V32.9629H44.9222V28.8629L26.8909 25.5125C27.8844 20.7405 32.0244 17.125 37.0422 16.9315C42.8107 17.1536 47.4203 21.9016 47.4203 27.7277Z" fill="#3D4159"/>
</g>
<defs>
<clipPath id="clip0_76_445">
<rect width="68" height="68" fill="white"/>
</clipPath>
</defs>
</svg>
