<svg width="68" height="68" viewBox="0 0 68 68" fill="none" xmlns="http://www.w3.org/2000/svg">
<g clip-path="url(#clip0_107_6392)">
<path d="M63.1868 40.7137L54.6783 32.2052C54.6433 32.1703 54.6059 32.1396 54.5676 32.1107V19.8522C54.5676 19.2907 54.1123 18.8354 53.5508 18.8354C52.9893 18.8354 52.5341 19.2907 52.5341 19.8522V32.0258C52.4469 32.072 52.3649 32.1316 52.2915 32.2051L43.783 40.7136C43.3859 41.1107 43.3859 41.7544 43.783 42.1514C43.9814 42.3498 44.2417 42.4492 44.5019 42.4492C44.762 42.4492 45.0223 42.35 45.2207 42.1514L52.534 34.8381V41.0823C52.534 41.6438 52.9892 42.099 53.5507 42.099C54.1122 42.099 54.5674 41.6438 54.5674 41.0823V34.97L61.7487 42.1514C61.9472 42.3498 62.2075 42.4492 62.4676 42.4492C62.7278 42.4492 62.9881 42.35 63.1865 42.1514C63.5839 41.7544 63.5839 41.1107 63.1868 40.7137Z" fill="#C5D3DD"/>
<path d="M54.0828 16.3168C53.9581 16.3168 53.8312 16.2938 53.708 16.2449L20.4567 3.04628C19.9347 2.83914 19.6796 2.24809 19.8867 1.72617C20.0937 1.20425 20.6845 0.948712 21.2069 1.15626L54.4582 14.3548C54.9801 14.562 55.2353 15.153 55.0281 15.6749C54.8698 16.0738 54.4874 16.3168 54.0828 16.3168Z" fill="#C5D3DD"/>
<path d="M22.1927 16.5326H16.9484L15.5928 61.6396H23.5483L22.1927 16.5326Z" fill="#FDB441"/>
<path d="M21.1431 19.5913C21.1282 19.6083 21.1127 19.6245 21.0989 19.6428L17.7049 24.1439L17.8378 19.5912H15.8035L14.5767 61.609C14.5684 61.8838 14.6719 62.1503 14.8633 62.3476C15.0547 62.5448 15.318 62.6562 15.5929 62.6562H16.6839H16.6847H16.6859H23.5484C23.8233 62.6562 24.0866 62.5449 24.278 62.3476C24.4694 62.1502 24.5729 61.8838 24.5646 61.609L23.3018 19.5912H21.1431V19.5913ZM22.2713 52.9961L17.7802 49.7423L22.0145 44.4524L22.2713 52.9961ZM21.8978 40.5693L18.0951 37.8143L21.6666 32.8811L21.8978 40.5693ZM21.36 22.674L21.5475 28.9106L18.3844 26.6204L21.36 22.674ZM17.5764 28.546L20.6723 30.7874L17.3782 35.3371L17.5764 28.546ZM17.2505 39.7135L21.0181 42.4431L17.0254 47.4313L17.2505 39.7135ZM16.6573 60.0475L16.9032 51.6181L21.0181 54.5994L16.6573 60.0475ZM18.8014 60.6229L22.3667 56.1689L22.5005 60.6229H18.8014Z" fill="#FE9901"/>
<path d="M20.8318 1.01672H18.304L16.9484 16.5326H22.1875L20.8318 1.01672Z" fill="#FDB441"/>
<path d="M22.0528 15.8257C21.5313 15.8257 21.0873 15.4267 21.0411 14.8973L19.9 2.03345H19.2358L17.8259 15.0071C17.777 15.5665 17.2845 15.9795 16.7245 15.9315C16.1651 15.8826 15.7512 15.3895 15.8001 14.8301L17.2911 0.928201C17.3371 0.403029 17.7768 0 18.304 0H20.8318C21.359 0 21.7987 0.403029 21.8447 0.928201L23.0669 14.7204C23.1157 15.2797 22.702 15.7729 22.1425 15.8219C22.1124 15.8243 22.0825 15.8257 22.0528 15.8257Z" fill="#FE9901"/>
<path d="M26.9477 68H12.1934C11.2653 68 10.5131 67.2478 10.5131 66.3197V63.2622C10.5131 61.814 11.6872 60.6399 13.1354 60.6399H26.0056C27.4539 60.6399 28.628 61.814 28.628 63.2622V66.3197C28.628 67.2477 27.8756 68 26.9477 68Z" fill="#FB8801"/>
<path d="M40.6107 27.9655H31.4501C30.5564 27.9655 29.8318 27.2409 29.8318 26.3471V19.3101H42.2292V26.3473C42.229 27.2409 41.5046 27.9655 40.6107 27.9655Z" fill="#855151"/>
<path d="M37.6611 19.3101V26.1479C37.6611 27.1518 36.8473 27.9656 35.8433 27.9656H40.4113C41.4152 27.9656 42.229 27.1517 42.229 26.1479V19.3101H37.6611Z" fill="#704444"/>
<path d="M64.7917 45.659L54.097 47.0147L42.0389 45.659C41.565 45.659 41.181 45.2748 41.181 44.801V41.8839C41.181 41.4101 41.5652 41.0259 42.0389 41.0259H64.7917C65.2657 41.0259 65.6497 41.4101 65.6497 41.8839V44.801C65.6497 45.2748 65.2657 45.659 64.7917 45.659Z" fill="#7A8C98"/>
<path d="M67.0303 48.9125H39.2175C38.7071 48.9125 38.2933 48.4988 38.2933 47.9884V46.0759C38.2933 45.5655 38.7071 45.1517 39.2175 45.1517H67.0302C67.5406 45.1517 67.9543 45.5655 67.9543 46.0759V47.9884C67.9543 48.4988 67.5406 48.9125 67.0303 48.9125Z" fill="#9B5E5E"/>
<path d="M61.2962 18.8214L57.2293 13.5912C57.0367 13.3435 56.7405 13.1986 56.4267 13.1986H8.34485C7.78335 13.1986 7.32812 13.6538 7.32812 14.2153V19.4455C7.32812 20.007 7.78335 20.4622 8.34485 20.4622H60.4936C60.8818 20.4622 61.2363 20.2411 61.4069 19.8922C61.5774 19.5435 61.5346 19.128 61.2962 18.8214Z" fill="#FE9901"/>
<path d="M61.2963 18.8214L57.2294 13.5912C57.0367 13.3435 56.7405 13.1986 56.4267 13.1986H52.3598C52.6736 13.1986 52.9698 13.3435 53.1625 13.5912L57.2294 18.8214C57.4677 19.1279 57.5107 19.5435 57.34 19.8922C57.1693 20.241 56.815 20.4622 56.4267 20.4622H60.4936C60.8818 20.4622 61.2363 20.2411 61.4069 19.8922C61.5774 19.5435 61.5346 19.128 61.2963 18.8214Z" fill="#FB8801"/>
<path d="M7.90534 23.3152H1.46337C0.680361 23.3152 0.0456543 22.6805 0.0456543 21.8975V11.9087C0.0456543 11.1257 0.680361 10.491 1.46337 10.491H7.90547C8.68849 10.491 9.32319 11.1257 9.32319 11.9087V21.8975C9.32319 22.6805 8.68835 23.3152 7.90534 23.3152Z" fill="#855151"/>
<path d="M7.52658 10.491H2.37274C3.36493 10.491 4.16936 11.2953 4.16936 12.2876V21.5186C4.16936 22.511 3.36493 23.3152 2.37274 23.3152H7.52645C8.51864 23.3152 9.32307 22.5108 9.32307 21.5186V12.2876C9.3232 11.2953 8.51877 10.491 7.52658 10.491Z" fill="#704444"/>
</g>
<defs>
<clipPath id="clip0_107_6392">
<rect width="68" height="68" fill="white"/>
</clipPath>
</defs>
</svg>
