<svg width="71" height="68" viewBox="0 0 71 68" fill="none" xmlns="http://www.w3.org/2000/svg">
<path d="M68 36.6154L62.7692 28.7692L57.5384 36.6154H60.0217C58.7049 49.8139 47.5385 60.1538 34 60.1538H2.61536V65.3846H34C50.4521 65.3846 63.937 52.7235 65.2682 36.6154H68Z" fill="#3CC8B4"/>
<path d="M62.6372 36.6154H60.1538L64.0769 30.7308L62.7692 28.7692L57.5385 36.6154H60.0218C58.7049 49.8139 47.5385 60.1538 34 60.1538H36.6154C50.1539 60.1538 61.3203 49.8139 62.6372 36.6154Z" fill="#1EAA96"/>
<path d="M64.4732 26.6115C61.3438 13.6732 50.2272 3.85638 36.6154 2.73177V0L28.7692 5.23077L36.6154 10.4615V7.97823C48.0695 9.12115 57.3606 17.6865 59.619 28.7797L62.7692 24.055L64.4732 26.6115Z" fill="#64C8F0"/>
<path d="M36.6154 1.74315V0L28.7692 5.23077L36.6154 10.4615V8.71838L31.3846 5.23077L36.6154 1.74315Z" fill="#46AAD2"/>
<path d="M39.2308 7.97821V8.39013C49.4622 10.4785 57.5359 18.5457 59.619 28.7797L61.4812 25.9864C58.3453 16.2781 49.7002 9.02306 39.2308 7.97821Z" fill="#46AAD2"/>
<path d="M8.38361 39.2177L5.23076 43.945L3.48761 41.3296C5.01761 47.7112 8.48953 53.3356 13.2522 57.5385H22.6754C15.4295 54.0378 10.0339 47.3045 8.38361 39.2177Z" fill="#FA6450"/>
<path d="M5.74861 43.1695L5.23076 43.945L3.48761 41.3296C5.01761 47.7111 8.48953 53.3355 13.2521 57.5384H14.9953C10.6969 53.7461 7.46561 48.7887 5.74861 43.1695Z" fill="#DC4632"/>
<path d="M28.7679 8.37317L24.055 5.23078L26.6756 3.4837C13.6981 6.58817 3.85508 17.748 2.72785 31.3846H2.61538H0L5.23077 39.2308L6.53846 37.2692L10.4615 31.3846H7.98608C9.13031 19.9345 17.68 10.6342 28.7679 8.37317Z" fill="#FAB400"/>
<path d="M5.34323 31.3846C6.31223 19.6442 13.7504 9.7554 24.0785 5.24647L24.055 5.23078L26.6756 3.4837C13.6981 6.58817 3.85508 17.748 2.72784 31.3846H5.23077H5.34323Z" fill="#DC9600"/>
<path d="M0 31.3846L5.23077 39.2308L6.53846 37.2693L2.61538 31.3846H0Z" fill="#DC9600"/>
<path d="M70.6154 62.7692L62.7692 57.5385V60.1538H55.6514C53.0622 62.2998 50.1617 64.0743 47.0128 65.3846H62.7692V68L70.6154 62.7692Z" fill="#FA6450"/>
<path d="M55.6514 60.1539C53.0622 62.2998 50.1617 64.0743 47.0128 65.3846H49.6282C52.7771 64.0743 55.6776 62.2998 58.2668 60.1539H55.6514Z" fill="#DC4632"/>
<path d="M2.61536 60.1539H5.23074V65.3846H2.61536V60.1539Z" fill="#1EAA96"/>
<path d="M34 54.9231C22.4439 54.9231 13.0769 45.5561 13.0769 34C13.0769 22.4439 22.4439 13.0769 34 13.0769C45.5561 13.0769 54.9231 22.4439 54.9231 34C54.9231 45.5561 45.5561 54.9231 34 54.9231Z" fill="#FAB400"/>
<path d="M18.3077 34C18.3077 23.3318 26.2977 14.5468 36.6154 13.2574C35.7562 13.1501 34.8879 13.0769 34 13.0769C22.4439 13.0769 13.0769 22.4439 13.0769 34C13.0769 45.5561 22.4439 54.9231 34 54.9231C34.8879 54.9231 35.7562 54.8498 36.6154 54.7426C26.2977 53.4532 18.3077 44.6681 18.3077 34Z" fill="#DC9600"/>
<path d="M47.0769 36.6154V31.3846H44.1189C43.8718 30.4274 43.4952 29.5251 43.0048 28.6934L45.0958 26.6024L41.3976 22.9042L39.3066 24.9952C38.4762 24.5049 37.5726 24.1282 36.6154 23.8811V20.9231H31.3846V23.8811C30.4274 24.1282 29.5251 24.5049 28.6934 24.9952L26.6024 22.9042L22.9042 26.6024L24.9952 28.6934C24.5049 29.5238 24.1282 30.4274 23.8811 31.3846H20.9231V36.6154H23.8811C24.1282 37.5726 24.5049 38.4749 24.9952 39.3066L22.9042 41.3976L26.6024 45.0958L28.6934 43.0048C29.5238 43.4952 30.4274 43.8718 31.3846 44.1189V47.0769H36.6154V44.1189C37.5726 43.8718 38.4749 43.4952 39.3066 43.0048L41.3976 45.0958L45.0958 41.3976L43.0048 39.3066C43.4952 38.4762 43.8718 37.5726 44.1189 36.6154H47.0769ZM34 39.2308C31.1152 39.2308 28.7692 36.8848 28.7692 34C28.7692 31.1152 31.1152 28.7692 34 28.7692C36.8848 28.7692 39.2308 31.1152 39.2308 34C39.2308 36.8848 36.8848 39.2308 34 39.2308Z" fill="#F0F0F0"/>
</svg>
