<svg width="68" height="68" viewBox="0 0 68 68" fill="none" xmlns="http://www.w3.org/2000/svg">
<g clip-path="url(#clip0_107_6457)">
<path d="M57.8592 26.9109L58.4341 23.865C59.02 23.6541 59.5956 23.3884 60.154 23.0653C60.8337 22.6719 61.4528 22.2134 62.0091 21.7032L64.7951 22.689C65.3186 22.8743 65.9001 22.6585 66.179 22.1756L67.844 19.2938C68.123 18.8109 68.0201 18.1981 67.5991 17.8354L65.2578 15.8183C65.5105 14.4492 65.496 13.027 65.1908 11.6358L67.44 9.70579C67.8628 9.34308 67.9686 8.73012 67.6921 8.24741L66.0417 5.36596C65.7652 4.88326 65.1846 4.66763 64.6603 4.85302L61.7467 5.88301C60.6687 4.96262 59.4257 4.2818 58.1017 3.86394L57.5653 0.945144C57.4646 0.397176 56.989 -1.47153e-05 56.4336 0.000122106L53.118 0.000395747C52.5625 0.000532568 52.0848 0.397724 51.9814 0.945828L51.4065 3.99174C50.8206 4.20258 50.245 4.46828 49.6866 4.79145C49.0069 5.18481 48.3878 5.6433 47.8315 6.15351L45.0457 5.16771C44.5222 4.98246 43.9406 5.19822 43.6617 5.68106L41.9968 8.56292C41.7178 9.04576 41.8207 9.65858 42.2417 10.0213L44.5829 12.0384C44.3302 13.4076 44.3447 14.8297 44.65 16.2209L42.4008 18.1509C41.978 18.5136 41.8721 19.1266 42.1486 19.6093L43.7991 22.4907C44.0756 22.9734 44.6561 23.1891 45.1804 23.0037L48.094 21.9737C49.1721 22.8941 50.4152 23.5749 51.7391 23.9928L52.2754 26.9116C52.3761 27.4595 52.8517 27.8567 53.4072 27.8566L56.7227 27.8562C57.2781 27.8562 57.7558 27.4588 57.8592 26.9109ZM50.6701 16.3881C49.3227 14.0359 50.1334 11.0276 52.4807 9.66912C54.828 8.31062 57.8231 9.11623 59.1705 11.4685C60.5179 13.8207 59.7073 16.829 57.36 18.1875C55.0127 19.5459 52.0175 18.7403 50.6701 16.3881Z" fill="#86DB7B"/>
<path d="M29.8925 60.1335L30.0136 18.4258C33.7378 17.7357 36.3953 15.6801 36.4078 11.3968C36.4197 7.30815 34.0182 2.34032 30.5678 0.0391308L30.5431 8.568C30.5402 9.55653 29.751 10.3539 28.7804 10.349L24.4526 10.3274C23.482 10.3226 22.6975 9.51726 22.7004 8.52873L22.7251 0C19.2615 2.26658 16.8313 7.21019 16.8194 11.2988C16.8069 15.5821 19.4525 17.6641 23.1725 18.3916L23.0514 60.0993C23.0458 62.0231 24.5727 63.5904 26.4618 63.5998C28.3509 63.6093 29.8869 62.0573 29.8925 60.1335Z" fill="#BED0E0"/>
<path d="M30.5678 0.0393066L30.5431 8.56818C30.5412 9.24298 30.4897 11.1303 30.4883 11.6146C30.4759 15.8979 26.8969 17.7015 23.1727 18.3916L23.0516 60.0993C23.0509 60.3087 23.1907 60.7652 23.1554 60.9643C23.5285 62.4718 24.866 63.5919 26.462 63.5999C28.3511 63.6093 29.887 62.0574 29.8925 60.1335L30.0136 18.4258C33.7378 17.7357 36.3953 15.6801 36.4078 11.3968C36.4195 7.30819 34.0182 2.3405 30.5678 0.0393066Z" fill="#AEC2D4"/>
<path d="M2.78816 38.3667L2.75299 59.8043C2.75012 61.903 4.40798 63.6059 6.44825 63.5999C8.47238 63.594 10.1097 61.9074 10.1125 59.8253L10.1476 38.3452L2.78816 38.3667Z" fill="#365DCA"/>
<path d="M6.04299 38.3573L6.00783 59.8253C6.00605 61.1299 5.36258 62.2789 4.38458 62.9568C4.97414 63.3648 5.68438 63.6022 6.44825 63.5999C8.47238 63.594 10.1096 61.9074 10.1125 59.8253L10.1476 38.3452L6.04299 38.3573Z" fill="#284EB8"/>
<path d="M11.5046 0L11.5075 10.4579L8.92594 14.895L8.94126 36.2656L3.94142 36.2525L3.92595 14.906L1.34209 10.4875L1.33936 0.0296901L11.5046 0Z" fill="#E8F4FF"/>
<path d="M11.5075 10.4579L11.5046 0L6.42062 0.0147767L6.42336 10.4579L3.88068 14.8285L3.92596 14.906L3.94142 36.2525L8.94127 36.2656L8.92595 14.895L11.5075 10.4579Z" fill="#DCEAF7"/>
<path d="M2.33991 38.3701L10.5429 38.3462C11.8347 38.3423 12.8818 37.262 12.8814 35.9332V35.9328C12.881 34.6038 11.8335 33.5296 10.5415 33.5333L2.33868 33.5117C1.04695 33.5157 -0.000410342 34.6414 1.20604e-07 35.9704V35.9708C0.000410583 37.2997 1.04791 38.3739 2.33991 38.3701Z" fill="#66A8FF"/>
<path d="M10.5416 33.5335L2.33881 33.5118C2.27765 33.512 2.21759 33.517 2.15766 33.5221L6.43687 33.5333C7.72887 33.5295 8.77637 34.6038 8.77678 35.9328V35.9332C8.77719 37.2621 7.7301 38.3424 6.43824 38.3461L2.1095 38.3587C2.1853 38.3661 2.26205 38.3702 2.3399 38.3701L10.5429 38.3461C11.8347 38.3423 12.8818 37.262 12.8814 35.9332V35.9328C12.8811 34.6039 11.8335 33.5298 10.5416 33.5335Z" fill="#4D99FF"/>
<path d="M11.5046 0L1.33934 0.0296901L1.33154 3.66653L11.5053 3.714L11.5046 0Z" fill="#BED0E0"/>
<path d="M62.4524 58.0034H17.9643L17.9621 52.6204C17.9569 40.3814 27.9117 30.4556 40.1967 30.4504C52.4817 30.4452 62.4449 40.3627 62.4501 52.6016L62.4524 58.0034Z" fill="#FFB938"/>
<path d="M44.9473 58.0034L44.9353 29.459C41.9654 27.9159 38.4259 27.9174 35.4574 29.4629L35.4694 58.0034H44.9473Z" fill="#FFE645"/>
<path d="M44.9353 29.4589C42.6114 28.2514 39.9386 27.9898 37.4636 28.6738C38.149 28.8631 38.8191 29.1246 39.4624 29.4589L39.4745 58.0033H44.9473L44.9353 29.4589Z" fill="#F5D60C"/>
<path d="M16.725 52.6209L16.7272 58.0034H26.966L26.9563 35.023C26.956 34.3014 26.1169 33.8957 25.5517 34.3468C20.1722 38.6393 16.722 45.2363 16.725 52.6209Z" fill="#FFE645"/>
<path d="M26.9564 35.023C26.9562 34.3014 26.117 33.8957 25.5518 34.3468C24.0304 35.5608 22.6635 36.9596 21.4851 38.508L21.4933 58.0034H26.9662L26.9564 35.023Z" fill="#F5D60C"/>
<path d="M53.441 35.0119L53.4508 58.0034H63.6896L63.6873 52.6011C63.6841 45.2165 60.2283 38.6224 54.8451 34.3346C54.2795 33.8839 53.4408 34.2903 53.441 35.0119Z" fill="#FFE645"/>
<path d="M63.6873 52.601C63.6841 45.2164 60.2283 38.6223 54.8451 34.3345C54.2795 33.8839 53.4408 34.2903 53.441 35.0119L53.4425 38.4922C56.4339 42.416 58.2123 47.3051 58.2144 52.6012L58.2168 58.0034H63.6896L63.6873 52.601Z" fill="#F5D60C"/>
<path d="M54.6842 65.9749L55.4898 65.5507C58.0069 64.2255 60.8105 63.5321 63.6576 63.5308C65.2268 63.5302 66.4922 62.2362 66.4387 60.6612C66.3876 59.1546 65.0953 58.0029 63.5823 58.0034H16.8347C15.3216 58.0041 14.0304 59.1767 13.9805 60.6832C13.9284 62.2583 15.1949 63.5512 16.7641 63.5505C19.6111 63.5493 22.4154 64.2404 24.9336 65.5636L25.7396 65.9871C28.2578 67.3102 31.062 68.0012 33.909 68.0001L46.5165 67.9948C49.3633 67.9935 52.1671 67.3001 54.6842 65.9749Z" fill="#FFE645"/>
<path d="M63.5822 58.0034H58.1093C59.6224 58.0027 60.9147 59.1546 60.9657 60.6612C61.0192 62.2362 59.7538 63.5302 58.1846 63.5308C55.3376 63.5321 52.5339 64.2253 50.0168 65.5507L49.2112 65.9749C46.6941 67.3003 43.8905 67.9935 41.0434 67.9948L33.7574 67.9978C33.8079 67.9982 33.8582 68.0001 33.9087 68L46.5162 67.9946C49.3632 67.9934 52.1669 67.3001 54.684 65.9747L55.4896 65.5506C58.0067 64.2252 60.8103 63.5319 63.6574 63.5307C65.2266 63.53 66.4921 62.2361 66.4386 60.661C66.3875 59.1546 65.0953 58.0027 63.5822 58.0034Z" fill="#F5D60C"/>
<path d="M67.599 17.8354L65.2577 15.8183C65.5104 14.4492 65.4959 13.027 65.1907 11.6358L67.4399 9.70579C67.8627 9.34308 67.9686 8.73012 67.692 8.24741L66.0416 5.36596C65.7651 4.88326 65.1845 4.66763 64.6601 4.85302L61.7465 5.88301C60.6685 4.96262 59.4253 4.2818 58.1015 3.86394L57.5651 0.945144C57.4644 0.397176 56.9888 -1.47153e-05 56.4333 0.000122106L53.118 0.000395747C52.5625 0.000395747 52.0849 0.397724 51.9815 0.945828L51.9089 1.32988C56.596 3.55213 59.8377 8.3265 59.8377 13.8584C59.8377 19.2923 56.7098 23.995 52.1569 26.2662L52.2755 26.9116C52.3762 27.4595 52.8518 27.8567 53.4073 27.8566L56.7227 27.8562C57.2782 27.856 57.7558 27.4588 57.8593 26.9107L58.4342 23.8648C59.0201 23.654 59.5957 23.3883 60.154 23.0651C60.8338 22.6718 61.4529 22.2133 62.0092 21.7031L64.7951 22.6889C65.3186 22.8741 65.9001 22.6583 66.1791 22.1755L67.8439 19.2936C68.1229 18.8109 68.02 18.198 67.599 17.8354Z" fill="#6DD45F"/>
</g>
<defs>
<clipPath id="clip0_107_6457">
<rect width="68" height="68" fill="white"/>
</clipPath>
</defs>
</svg>
